<mxfile host="app.diagrams.net" agent="Mozilla/5.0 (Windows NT 10.0; Win64; x64) AppleWebKit/537.36 (KHTML, like Gecko) Chrome/133.0.0.0 Safari/537.36" version="26.0.14">
  <diagram name="Page-1" id="r__zFNlrKhQIh8nUa84n">
    <mxGraphModel dx="4031" dy="1907" grid="1" gridSize="10" guides="1" tooltips="1" connect="1" arrows="1" fold="1" page="1" pageScale="1" pageWidth="850" pageHeight="1100" math="0" shadow="0">
      <root>
        <mxCell id="0" />
        <mxCell id="1" parent="0" />
        <mxCell id="LXhwEYFynrwZ-pUap6Co-1" value="" style="shape=image;verticalLabelPosition=bottom;labelBackgroundColor=default;verticalAlign=top;aspect=fixed;imageAspect=0;image=https://cdn.freelogovectors.net/wp-content/uploads/2020/09/kainos-logo.png;" parent="1" vertex="1">
          <mxGeometry x="-2185" y="-994.22" width="195" height="44.85" as="geometry" />
        </mxCell>
        <mxCell id="LXhwEYFynrwZ-pUap6Co-2" value="Designed by your Workday Partner" style="text;html=1;align=center;verticalAlign=middle;whiteSpace=wrap;rounded=0;" parent="1" vertex="1">
          <mxGeometry x="-2190" y="-949.37" width="200" height="30" as="geometry" />
        </mxCell>
        <mxCell id="LXhwEYFynrwZ-pUap6Co-3" value="&lt;b&gt;&lt;font style=&quot;font-size: 16px;&quot;&gt;Solution Overview (Workday Perspective)&lt;/font&gt;&lt;/b&gt;" style="text;html=1;align=center;verticalAlign=middle;whiteSpace=wrap;rounded=0;fillColor=#0000CC;fontColor=#ffffff;strokeColor=#432D57;" parent="1" vertex="1">
          <mxGeometry x="-2190" y="-904.22" width="1370" height="54.89" as="geometry" />
        </mxCell>
        <mxCell id="LXhwEYFynrwZ-pUap6Co-4" value="&lt;b&gt;LEGENDS&lt;/b&gt;" style="text;html=1;align=center;verticalAlign=middle;whiteSpace=wrap;rounded=0;" parent="1" vertex="1">
          <mxGeometry x="-2170" y="-849.33" width="200" height="30" as="geometry" />
        </mxCell>
        <mxCell id="LXhwEYFynrwZ-pUap6Co-5" value="" style="endArrow=classic;html=1;rounded=0;strokeColor=#007FFF;" parent="1" edge="1">
          <mxGeometry width="50" height="50" relative="1" as="geometry">
            <mxPoint x="-2180" y="-804.22" as="sourcePoint" />
            <mxPoint x="-1885" y="-804.22" as="targetPoint" />
          </mxGeometry>
        </mxCell>
        <mxCell id="LXhwEYFynrwZ-pUap6Co-6" value="WD INTEGRATION IN SCOPE" style="edgeLabel;html=1;align=center;verticalAlign=middle;resizable=0;points=[];" parent="LXhwEYFynrwZ-pUap6Co-5" vertex="1" connectable="0">
          <mxGeometry x="-0.0805" y="5" relative="1" as="geometry">
            <mxPoint x="-2" y="15" as="offset" />
          </mxGeometry>
        </mxCell>
        <mxCell id="LXhwEYFynrwZ-pUap6Co-7" value="" style="endArrow=classic;html=1;rounded=0;dashed=1;" parent="1" edge="1">
          <mxGeometry width="50" height="50" relative="1" as="geometry">
            <mxPoint x="-2172" y="-739.22" as="sourcePoint" />
            <mxPoint x="-1887" y="-739.22" as="targetPoint" />
          </mxGeometry>
        </mxCell>
        <mxCell id="LXhwEYFynrwZ-pUap6Co-8" value="NON WD INTEGRATION / PROCESS" style="edgeLabel;html=1;align=center;verticalAlign=middle;resizable=0;points=[];" parent="LXhwEYFynrwZ-pUap6Co-7" vertex="1" connectable="0">
          <mxGeometry x="-0.0805" y="5" relative="1" as="geometry">
            <mxPoint x="-2" y="15" as="offset" />
          </mxGeometry>
        </mxCell>
        <mxCell id="LXhwEYFynrwZ-pUap6Co-9" value="" style="shape=image;verticalLabelPosition=bottom;labelBackgroundColor=default;verticalAlign=top;aspect=fixed;imageAspect=0;image=https://www.syrinix.com/wp-content/uploads/2021/12/rsz_1south-east-water-logo.jpg;" parent="1" vertex="1">
          <mxGeometry x="-1652.88" y="-994.22" width="165" height="80.63" as="geometry" />
        </mxCell>
        <mxCell id="LXhwEYFynrwZ-pUap6Co-22" style="edgeStyle=orthogonalEdgeStyle;rounded=1;orthogonalLoop=1;jettySize=auto;html=1;exitX=0.338;exitY=0.029;exitDx=0;exitDy=0;exitPerimeter=0;curved=0;strokeColor=#007FFF;align=center;verticalAlign=middle;fontFamily=Helvetica;fontSize=11;fontColor=default;labelBackgroundColor=default;endArrow=classic;" parent="1" source="LXhwEYFynrwZ-pUap6Co-10" edge="1">
          <mxGeometry relative="1" as="geometry">
            <Array as="points">
              <mxPoint x="-1551" y="-510" />
              <mxPoint x="-1610" y="-510" />
              <mxPoint x="-1610" y="-734" />
            </Array>
            <mxPoint x="-1610" y="-740" as="targetPoint" />
          </mxGeometry>
        </mxCell>
        <mxCell id="LXhwEYFynrwZ-pUap6Co-41" value="&lt;div&gt;&lt;br&gt;&lt;/div&gt;&lt;div&gt;&lt;br&gt;&lt;/div&gt;" style="edgeLabel;html=1;align=center;verticalAlign=middle;resizable=0;points=[];" parent="LXhwEYFynrwZ-pUap6Co-22" vertex="1" connectable="0">
          <mxGeometry x="0.5469" y="3" relative="1" as="geometry">
            <mxPoint as="offset" />
          </mxGeometry>
        </mxCell>
        <mxCell id="DpNto-erMD7lXuYV3NgU-3" value="Time off&amp;nbsp;&amp;nbsp;&lt;span style=&quot;background-color: light-dark(#ffffff, var(--ge-dark-color, #121212)); color: light-dark(rgb(0, 0, 0), rgb(255, 255, 255));&quot;&gt;Requests&amp;nbsp;&lt;/span&gt;&lt;div&gt;&lt;span style=&quot;background-color: light-dark(#ffffff, var(--ge-dark-color, #121212)); color: light-dark(rgb(0, 0, 0), rgb(255, 255, 255));&quot;&gt;and Corrections&lt;/span&gt;&lt;/div&gt;" style="edgeLabel;html=1;align=center;verticalAlign=middle;resizable=0;points=[];" parent="LXhwEYFynrwZ-pUap6Co-22" vertex="1" connectable="0">
          <mxGeometry x="0.5123" relative="1" as="geometry">
            <mxPoint x="10" as="offset" />
          </mxGeometry>
        </mxCell>
        <mxCell id="LXhwEYFynrwZ-pUap6Co-42" value="Interview&lt;div&gt;Scheduling&lt;/div&gt;" style="edgeLabel;html=1;align=center;verticalAlign=middle;resizable=0;points=[];" parent="LXhwEYFynrwZ-pUap6Co-22" vertex="1" connectable="0">
          <mxGeometry x="0.4813" y="1" relative="1" as="geometry">
            <mxPoint x="-79" y="50" as="offset" />
          </mxGeometry>
        </mxCell>
        <mxCell id="LXhwEYFynrwZ-pUap6Co-27" style="edgeStyle=orthogonalEdgeStyle;rounded=1;orthogonalLoop=1;jettySize=auto;html=1;startArrow=classic;startFill=1;strokeWidth=1;strokeColor=#007FFF;endArrow=classic;endFill=1;curved=0;entryX=1;entryY=0.5;entryDx=0;entryDy=0;" parent="1" source="LXhwEYFynrwZ-pUap6Co-10" target="LXhwEYFynrwZ-pUap6Co-17" edge="1">
          <mxGeometry relative="1" as="geometry">
            <mxPoint x="-1790" y="-469.22" as="targetPoint" />
          </mxGeometry>
        </mxCell>
        <mxCell id="LXhwEYFynrwZ-pUap6Co-38" style="edgeStyle=orthogonalEdgeStyle;rounded=1;orthogonalLoop=1;jettySize=auto;html=1;curved=0;strokeColor=#007FFF;shadow=1;entryX=0.5;entryY=1;entryDx=0;entryDy=0;entryPerimeter=0;" parent="1" source="LXhwEYFynrwZ-pUap6Co-10" target="LXhwEYFynrwZ-pUap6Co-54" edge="1">
          <mxGeometry relative="1" as="geometry">
            <mxPoint x="-1525" y="-684.22" as="targetPoint" />
            <Array as="points">
              <mxPoint x="-1525" y="-624.22" />
            </Array>
          </mxGeometry>
        </mxCell>
        <mxCell id="LXhwEYFynrwZ-pUap6Co-43" value="JML" style="edgeLabel;html=1;align=center;verticalAlign=middle;resizable=0;points=[];" parent="LXhwEYFynrwZ-pUap6Co-38" vertex="1" connectable="0">
          <mxGeometry x="0.2625" y="-2" relative="1" as="geometry">
            <mxPoint as="offset" />
          </mxGeometry>
        </mxCell>
        <mxCell id="LXhwEYFynrwZ-pUap6Co-58" style="edgeStyle=orthogonalEdgeStyle;rounded=1;orthogonalLoop=1;jettySize=auto;html=1;exitX=0;exitY=0;exitDx=0;exitDy=97.5;exitPerimeter=0;entryX=1;entryY=0.5;entryDx=0;entryDy=0;curved=0;strokeColor=#007FFF;align=center;verticalAlign=middle;fontFamily=Helvetica;fontSize=11;fontColor=default;labelBackgroundColor=default;endArrow=classic;" parent="1" source="LXhwEYFynrwZ-pUap6Co-10" target="LXhwEYFynrwZ-pUap6Co-57" edge="1">
          <mxGeometry relative="1" as="geometry" />
        </mxCell>
        <mxCell id="LXhwEYFynrwZ-pUap6Co-91" value="Tax and Contributions" style="edgeLabel;html=1;align=center;verticalAlign=middle;resizable=0;points=[];" parent="LXhwEYFynrwZ-pUap6Co-58" vertex="1" connectable="0">
          <mxGeometry x="-0.067" y="2" relative="1" as="geometry">
            <mxPoint as="offset" />
          </mxGeometry>
        </mxCell>
        <mxCell id="IddoA99KZuMBQ-tLbZDF-7" style="edgeStyle=orthogonalEdgeStyle;rounded=1;orthogonalLoop=1;jettySize=auto;html=1;entryX=0.25;entryY=1;entryDx=0;entryDy=0;curved=0;dashed=1;strokeColor=#FF3333;" parent="1" target="IddoA99KZuMBQ-tLbZDF-5" edge="1">
          <mxGeometry relative="1" as="geometry">
            <Array as="points">
              <mxPoint x="-1774" y="-494.22" />
            </Array>
            <mxPoint x="-1608" y="-494.20000000000005" as="sourcePoint" />
          </mxGeometry>
        </mxCell>
        <mxCell id="IddoA99KZuMBQ-tLbZDF-8" value="JML Data" style="edgeLabel;html=1;align=center;verticalAlign=middle;resizable=0;points=[];" parent="IddoA99KZuMBQ-tLbZDF-7" vertex="1" connectable="0">
          <mxGeometry x="0.5869" y="-1" relative="1" as="geometry">
            <mxPoint x="-11" y="-9" as="offset" />
          </mxGeometry>
        </mxCell>
        <mxCell id="hhFu2yXnE7WBhEnphd9l-4" style="edgeStyle=orthogonalEdgeStyle;rounded=1;orthogonalLoop=1;jettySize=auto;html=1;entryX=0.5;entryY=0;entryDx=0;entryDy=0;curved=0;entryPerimeter=0;dashed=1;strokeColor=default;align=center;verticalAlign=middle;fontFamily=Helvetica;fontSize=11;fontColor=default;labelBackgroundColor=default;endArrow=classic;" parent="1" source="LXhwEYFynrwZ-pUap6Co-10" target="LXhwEYFynrwZ-pUap6Co-72" edge="1">
          <mxGeometry relative="1" as="geometry">
            <Array as="points">
              <mxPoint x="-1480" y="-640" />
              <mxPoint x="-998" y="-640" />
            </Array>
          </mxGeometry>
        </mxCell>
        <mxCell id="lF2a-6-bPxqarsUywT9y-4" style="edgeStyle=orthogonalEdgeStyle;rounded=0;orthogonalLoop=1;jettySize=auto;html=1;" edge="1" parent="1" source="LXhwEYFynrwZ-pUap6Co-10" target="lF2a-6-bPxqarsUywT9y-3">
          <mxGeometry relative="1" as="geometry">
            <Array as="points">
              <mxPoint x="-1706" y="-470" />
              <mxPoint x="-1706" y="-480" />
              <mxPoint x="-1780" y="-480" />
              <mxPoint x="-1780" y="-499" />
            </Array>
          </mxGeometry>
        </mxCell>
        <mxCell id="LXhwEYFynrwZ-pUap6Co-10" value="&lt;div&gt;&lt;br&gt;&lt;/div&gt;&lt;div&gt;&lt;br&gt;&lt;/div&gt;&lt;div&gt;&lt;span style=&quot;background-color: initial;&quot;&gt;HCM, Recruiting&lt;/span&gt;&lt;br&gt;&lt;/div&gt;&lt;div&gt;&lt;span style=&quot;background-color: initial;&quot;&gt;UK Payroll, Finance&lt;/span&gt;&lt;/div&gt;" style="shape=cylinder3;whiteSpace=wrap;html=1;boundedLbl=1;backgroundOutline=1;size=15;fillColor=#ffe6cc;strokeColor=#FFFFFF;shadow=1;" parent="1" vertex="1">
          <mxGeometry x="-1605" y="-534.22" width="160" height="140" as="geometry" />
        </mxCell>
        <mxCell id="LXhwEYFynrwZ-pUap6Co-11" value="" style="shape=image;verticalLabelPosition=bottom;labelBackgroundColor=default;verticalAlign=top;aspect=fixed;imageAspect=0;image=data:image/png,iVBORw0KGgoAAAANSUhEUgAAANMAAABVCAYAAADT7tEcAAAAAXNSR0IArs4c6QAAAARnQU1BAACxjwv8YQUAAAAJcEhZcwAAFxEAABcRAcom8z8AACAVSURBVHhe7V0HdFzVmb4jWbbBGEJJYnYTSNndAAmQShpZSCPZQLLZTZxCc2Jr3psZNTdCnKbkUGzJFnLBYGOCg40tvfdmVFwxgdiwCyEcWkJJII26xoAdSZaLbEuz3/e/+55Go6myjGXzvnPumdHc/t//u/9/y3tSAUY2Xq5Vp+ycqy7MFfYgdM1T5ydr1VidLUCANyf6VqhxW+eqcR2z1Xt21qub9zaqFV31buisV08lb1TJnGGxSvYtUMmuueoBL1/vfLViZ52ajTJPZNl9CLq6AAGOLnTXqQ/33ai+DMvy830L1FYQYSuItF3IcVN/6AVJkCZv6J6H9AtT8t7sE+wVxG/d2yDlV7DOjnr1Xt2MAAGOTCSXqlNgaebsvUHdBuvRKRYFBNjXqJL7EfjZnYEoQw0kWGrZQjbUibi/7p+vlnTWqauSywPXMMARgleuU29PLlMXwhLduH+hejm5yLUcINQg5T/UwSMqiCSWS4i2QD3fVad+gr8vxPrsWN3sAAFGFuBizQJpHqPi0l2jEtNapCt5MWFPg0sCht34nilNoWEX2nIAbWLbSPADC9TdXfOUoZsfIMDhRXe9mnBgkZoE4vxJ3CoEKm4+940ko3Iz9MBqeeue9CDl1KvXkWcHrVumNHTlSDqvvLx160/m6wFJO+eqp/tuUpf88So1XncrQIA3DslaVYJ10A/33KD+QKXkbE9FTlfc1EACcZOAhKOFIAH4iXK2QaGvxeeP00PHHPWdXXPVx7bPUZ/C+ut7u+cNTgOLuBChh9aLZYrlQR35NjOQR6ydpEcf9s1Xm/FbRHcxQIBDD8zsk3oXqie5HiI5MimqF0ggKrhYEKSHsj4JAj2OdUvjjtnq3L6F6tyOG9R7dNFDBso9q6dBncsyO+uUdaARddSrP0u9sHpisXKQndaKO4vcvEB4fOds9TlddIAAww+sL87ouxEWZK7qpeJlU04osWw4eBYCf++FKzcH+WYlbVWqizvk4JkT2nMtrM+NXnsYaI3QlsHtRoDl83YAd8DS/RiTxVt1cQECHDzg0o3qu1mdh7XLX5PLsisjg8zwsAZ7G9RepP8fWJ7P4PMcXdRhA11FWKevod1/EEvpEiZjYN9kfXYr/mYfGtWZupgAAYaO5FJVBsti9cJFowuUSfkYfEuEdL2L1WqQ6mJdxIgD114HFqkNJJS3dsvUJwZv9w+kmqOzBwhQPHZco07vrldNtDTZtqXp6jEei/fdIN3dexrVhTr7iMaTtWp032J1EazQ70GmPq6rMvWPQawUiAfrVvf6teqfdREBAhSGjjplQMn2cVbOtjbyZm0o5eo9N6iLkC3k5j5ywDUcrM7lsFTruQ7kjmCmvnIy4WZLT6Pa0TFHfUlnDxAgN7pApH2LVK8cuqYplb+egDVC3DN0mXS2Ixr2RFUKIv0MfdxBK5RpAuFvvQvlFsXOHXXqEp01QIDMIJFobXiYmb7JwL97QTAs5PfD5bmj6yjc6UIfz8JksYVWiJNGav9FBvWuNd7bqHaBXIGFCpAZUI7yfQtVbyZXR3bpeMeuQe3orFNf0VmOSrzQoI4BqSJw7fq4oZIuC04qB0Co/QtV1/bZI3ejJcBhAmZcU2bjDBaJ6wW5UbBQPfSPOvVZneWoB9ZSl4Iwz2c6U/MsFNaKu4M1VAAfUJTJPQtUX7pFIqnkTAbKBMW6bsccdYLO8qZB13XqjN3z1G3eLYp0+dBCwZp3dgYWKoBnkTKtkTwiwTJdrZO/aYEJZwk3XQYRyrNQDWrv9qPc/Q2QA7RI+7JZJO7YgUhQlh/r5G92hCCLX2YiFINs2ixQXUf7ejJABtAt4TZvJovEXay+wCJlxO5GtTirhYI88X3v3jr1rzp5gKMdyYmqFIP+2/SdqsAiFQbI6pZMayjZ8XRlukwnDXA0A+uj4/c0qjtkhypFERhIpD4eWDaoWTp5gAxIwuWD9V6ciVD8uxeyxeccbrHrLAGORnTUq6rkLYO3ekksbkR0zVM/0kkD5EFnvVqW0bpz4waT0vbr1Sd10gBHG7oa1Zkg0YuDNhzg7yeXiCI066QBCsDWGWoc1pXynr/0dSfvLe5qUPfvvE69XScPcLQAVmcMSPMgF8+pg87AA9me+erVzgb1CZ08QIGATL8B2e3jPcZ0QtEDwOctOmmAowFyM3quqty/QB1I9/G5cwe35JUdc9T5OnmAIgHX+dLeBaqLN0VSZcs1KLyAzs656j900gBHOjoXqZM767LMnstUsnOOmq6TBhgiYKF+pS2RHyhrrqm66tRzOlmAIx0g0kKegaRvOuwDuXY3qk3dN6hTddIAQ8SeevVeWKLfc8JKlTE9gQM3qh5YrwqdNMCRCr6xZ898tT19kOmC0C15eY46TScNcJDYWac+K++WSJm0aJ34yD/c6Ue3zlVv00kDHGng+xs669VmDjB37FLJxN8wW87n49s6eYCDRN+tajzWn+08f0p1p2W3FL+BbHU6aYAjDbvmqq9yG5yvr0ol0v4F4vK92tGg/kUnDTBM2DlbfQFeQE/6g4UcB5Cqo2P2wb8jMMBhANZK9/IMJHVQeaDI+3hwRb6okwUYZkDuNek3TOSqEb2BOjVXJwtwpKBrjjp/d6PaLsRJGVRuRGBA730jXwb5ZkP3tepUrEef4QZPquwPQPaYzB7ZOT84yD1iwPeAd85T1+hbDf5gypWhxWp/d2Nw7nGosbNeTe+7WfWmWidZO92skljHXsn7fTppgJGMzkb1vl3zVBd37LyBZJCdprnqzuB/wR56wM07DkR6hv/cLXUMxFrVq7+9GZ9aPiKxvUGdLRsPKSfyPO/YO1/1ds5RM3Wyw4va2hJlPFzmh4n2yHM7a5Mlo6PWdFW1dkmoev2ScZXOd6XdBQIWKMGHBlOtkzw/Vq92dtSqk3SyACMZO+rVOUkMYiqZ+GpjDO7+voYRMohh5yJVteE5ZdjPqcq1z4VMp/2sWntkbdMbViQ0/e6kmnpXUk37dTJUua5XheNf0LF5satBnccbEKnjoHf19vCfCuhkAUYyOOt1zlVtXDNxMCXcJGRaNGI2HsLxb6hp9yRVRXtS1WxKlprOC+f+aO3IevWwaf2YJFKm44aaO5Oq3PovHZsXfXVqPIjTnj4OWMfOh6sdnO8dKeAt8T2NasWBBerB3kXqwT0NI2xL1oh/HZbJVdKKNcnSiP3sh65q+ycdOzJgWFerqZv6yVS1PqnC1td0bEEgabB2vZ3jcADjsOsGNS+ZDDYfAgwn3iRkChDg0CMgU4AAw4SATAECDBMCMgUIMEwIyBQgwDAhIFOAAMOEgExHMWo3j1Ixe4KKrZugZm6eoKYsK+6mAPNJQBkzfzdB1daO0jF5cfLkW8dLnQyTlr9F/1wcjKVlUq/0ISXMRJumWAd/64Fls30ZcKKx9ASJ8+tE2gvy9P9gyHT5irf58p6yemg3sKust/rjJUF/T8Vwk2lymzvOfp263intxffhkqXH+mVR3kPBNxuOcXVm3YRjUc7pk5YP053NWOsHVSTRrSLxbhVt7Vaxtr8pw/mojs2NsD0DCtENgbuhci3KaWlFeXkfU56AQS2JtTyqYu2ok/W2P1twvcDba5reVRJbcwXa3aYqUK/XBi9EW7pR3t9U9Z3fV5euKv4KS8w+Thn2Lapyndsv05mtqhaM0bFqVHj1x0sr2p4QmXl1Sv8TbTn7P1QyhZsuwti8ljJWu1TEmaxj84Pkq9loKtPehjHqb7OJsvhZs/EqZa5y3xVuNP1wWMgUsT6nqjZegTofkXH260RgPwy7E2NXM6rc+YzOkRvlLf8WirU/4JfFsTGabynqfqMQuW2LqzPx7pLKNd1l0eYrdexBwmw5D41KooIkFDCpZmxOhkznNh2bHdOsYyCM10XQ0VY3xBB4nyvc/DGdKjNoDU2nXa6p6LyhaXcnQxHrWp0iN6JNnyqpbH82xLoq17rt9trgB/zGPvFaTOW6h6GAP9S5C0O45b0YNCg8AuVjOj3yO/odiiSWo/ztbt9T6mZ9TGtY2d9oOhQyTWn+CvrZKWWzvmrkj7b0oZ7LdYqcGAt5QXEeU9N/445RJnlNvwefib+LsplWWMbxYMhkWN9Ge3tE/pRhxjFCQD2hWBsnvxt0zuzgmETbnnX1huMLvQHpx8Scwh6LJ+kMZ4mCrrntQZh5H8bLLk43ssJo+aQMjic4KFBJLP738TXW+3SKjBgVtWeFKtb2QkmTbkgguAqiws40lUxmvzrCi50miEghs85K5DHjTwpBcwFllpj2lVDmf8gAMy/rZfsp4NQgBEC7TNtVhmr8Vm79QpeUH+XWuyHk/b7QzfhOKNkX0cc7RCnZT4mjUuCTMpDZPL5AJotsKJZM5c1fQh27ZdIw0BfWW7l2J2bkr+oUOXGMaZ1XUgGLJnUiP9vJNldvHCwvfhrO7xCWS32eThRJplKj+Voofa+ML9ucqT6ZiPA7y/cmPcP+ZV4rU25NF5Jy3JkX5YZM60EdmxvGr09AHZ1+vfysXPcqxmyY/h1ORcvJaFibqpLZ12+g3G7OBdNaqKa6lyFDUDoo+R5RXg626WzVqbLDsJ7rJ9NalOE8rWOyY8rqL4J4+6QODhIHgcphWFfBpYDLlxJoXdkPxlOJqPAcxHKsBwpBKpnYRhk81oXfWI4rK+222LtCbNNVmOXCzk91CZlROJlCykh8Ge4ILFIKkWKte1BHYQ85VqDcCMiROllGWg6EDGs7fq8YIC/DvkHkSSWnRWZ9Xp5iyGTal4mye0SSSc15HfoyJbU+jPcv4AF1a31xx4nW0LAW65IyYyIm4rC1S9rKfEKI9dsKIkQ0/h6OlU8mTrCGdZ+OHSYY8Z/03xJGpzh4YbgGWXD8NOskWIc1ImSZwex7Q0bzXBk0CBGD9fJpP1yXfZ1CN4huknQK9SHPmIg1X8dmBtsTbXnFtWIkh8wq+1S5/T2dYhBC0dbZWAv0EwoDi9+eE1cmH9LJJANHC5TgIwlbSqLxb7v+tz3hxGjTO8vY/khipSy2c6FQMk1cekLItGFRIGOZOKCcFWs71ORVX9cp8sO0E+LSeO2XWdzZgnZmXtNFWqKQEV2u/jwMhZIp0vwBktUnEolS0b4dZVyoUwxEVeIdsIJ3Sfmsh/mira+KO5cFpxpLjy0xrM39lhP10FPg+j0fTHsl6uqTfNSJ2JpekLxRxw4PxsXsGSVVa/tcpWOnIATDXp3NXSmNNH8pxFmfaTnzhO1NYh04Y6MMun+jYk72/yphWCt8n5wzPmcZI36Gjs0Mw1rvKwbbyXpzEMlH2FqGtBAa8lHwaOOYqLPiyymbCRmRkUwyo3VgdjxOpyoehZLJSFzvKgz6yjbIhGOX69i8KINiw/3ZKgoqbaecW/tKI02X6CSZYdi/7VdUHQolk2H/yicGZVXRvksmzhw4sdo+rbSi5QW4hW4+TuqRONZPOZYJ9JoqN+gxRXCt229z7nDy4caIs1G8FWmfHtfIiuF9p99ZMfs4zIJ/dGd9No4zi7NDTGomUECVFJpWasNei4b+iM/nSP6pVPr4jTr1YBjWIn+3KCKzfY+KNp2pYwdhfFXTp0qjide1Muv22U/DKhSm1NGWe3wFhhAxs/Womjxb8elk4kxLMnPSKOKp00EohEyGVedOTK5rWQLlHh1pLu5F+Fy3pm4iUGZh6wFoVe62yw6cHlsvbyFkogsVbd3mk7eC3k3zOh2bE6GIdZs7UULGlHesrQN5P6yjB4Nra3pGnrvNybVqbbIskviATjEYfI6seuOufoPBCdx+Qo4Khh1h+1F/RnLJ9AIGffDsDWuFNdIvZTbgYFPBY87nRcmm6s5BkKVR52HOOjqXjwmx+OmlEecRn7h0DQ3r1ox1eTCdb/UrBpX6HuaJ6Nj8MKwWf0aiMDFDj4o0T9WxmZFOJvY31v443M2sLkhByECmc6dZ/Q8HRpzrxZcXItGSboKSWJvPq1p5vE5RGMoTVQPIJHIuYNPiKripJibH1DV0IWQyYE28pQJlTHmFV39cx+ZGzD4f6beJLnleh7E65zHJ2EjT1aGKdnhT7oTD+kDKRTp6MEwnZYdST4wRq/CjhaIQbv6G2xk0Tpi+fj8aeZ2O7UfVs2OgZJ3iw3tkql5zmoquOhGK94TMSGhwCGuV0ormL+lcPkCkS0L+Ah6d4pbsFCv7op2Hsob9k373AXVWru+Ashf85Cfa+QH0ZadPDHftgFk6B9LJxDYb1h06dujIQKaPz+LhJSwGz7I8i0RLKN9bHpLD2iLAQ8hS01rly0z6zDqtb+okuRFuqlTTUohYEJnglvrehiaT0fzvOjY/wtZTojsy2bVzMp6oYzLiHdOWnYTx2C16yDqRNxSJP//WTOthunKmjbWyt2mBMa1a/49Cd0SLxxS4WR5BWKHL4sHnTXT9DOclNy1cpojTPSZmuW9INazf++6fDKQ1+IWPRuvnfWUCEUOV7dtHR5qy705NWj4BirVXSMs8MsPaG3RsYZj8v+ORp8Mvg/Ub1j06NjPSyUTLZjiOjh06MpCpwbKOGQ3lkXUo3V7G0WWOtT2kzF8V/Uj7+Ij1Pkxa/WMp5XECs76lk+TGEG5AYHJaOMDtkrW0dYGOzg/D+ZMQkPlpZUz7yZzHK1xTRZzFvseBUII2j2bb0xFOnIqx7B04Mdp36thDAJ5+m/FXUpV2lGklPtGQdvZjOteo6vX7RGCwPiGzud7fqKA7JZbJnZkgkPtBhv6rGvJmnrghgmYdcCVC4TxnBFxUGg5P/P124e/iBGGsOQXC6z9fEGW279axmfGGkAnucMR+/J1TnfeHovHHfWVyJ6r7lbHqFJ2rOBirzpAx8MjEw81I/PVR+Q7TPRRJpgk1TWeOjTmv+fLFMgF/P316Teu7dJL8SCMTZP/X3GQCwtbZWJq83j8BcYziS9LPK0dHrIWhyjV9IhMGeUGMdZOOPkQw7Vn9QownR1e29p5U2TzwrTSGc7trteiicdHY/AMdw8Xr+4RkHETX/L424K4eNzoMe5tvbl2//CEdmxkumeCiHYVkQtmYcF4oMe2/+BOM5yKVr/qIzlE8OA5SliYTyFBiWL+eWOhbkIq1TLGW82Us2Xamp1WNFHgrwcNgMj2bl0yE6SzzzjulfuoWt+hTwa10Eo1pqAP0dKgThxSG8ws1A2sYEoUVU4GiiYt1rHtfLRJPiEKjUaFIYscY7v54YCeEILpT0ZZtqnzFu3WsUjM2jUO5r7odxkAz5Fv7HM1kghxApGfKInZCyOQpIyzWKKO5RecoHulkoszCdquOzY9iyWTGPy0bSj6ZZLIdvN7OhSGSqcSM/wzt2y91C5kwiYctX2fp8sLq/8XfZaTuGdafVTTHOeiwIAwrVLn2/+gWeELEQrZf2SlQClbiqBDcak0BbwGb9n2+UGQBbS3XsRAYNxOcrQPIZKzJ/X+SjmYyQU5Y2zw1cY59Asqu82XLdvIyZ7SINUcqhExULk0mktO0Hv3grAK3gYsk0/ga5+NlFZCTRyb0ryzqOOfMWDFOJ8mPoVom977dS35e7kiHrT/oWBA9YfqWi4FeVdi6QsceYvB6RbUeVLAZbshDUMZjJW5y0+dFmRnH9U7EuUt+T0XYjvlbkBwQ3ur14M4iPSJ0Kikvypp5/OrwylOlLE+paa7D9hodWxhGNJnsZ2O1sPjoZyja0iPK4N8eWNOByaT4/9phxM8IcUL0lBukKqts6zmpqin3FTEPRZKJpCmLYL3sTQaorzTWsv+YQrfGiaGSiSi3wiI3sUxt9JheOanKOkvyU+dSN0aqNvC2fe6D62GD6TzmC4UWhCf+PAOamCyFJWpwG50AyeJ94yoSgwZ6VLR5VkjOG6AQTBtre0AUk6AyekSjX21Y03OedBOXrTwegt0wQNCx9qfQlrN0ivy4HO7lgN08EgMWNBfeQDK5h7aQQyTxNcjMtcIklMivvQNpM1/HyYLjpyw7qSRsbXI3g1APg6tQhe3mhZtnFOXmEWbiGj8PlVbWgE2Ftzts/3HIZOIBb6qbKdv68VnqAnk6oad/DLmL57Qf1KF7UeB5UyThXi0Sdyz+mpwST9o8FgTZI7+5V1PQsMEu2thY/PRQtPVJLRD3NoThnhmUGs2WO6j4nfepeNBbCHg+IqYa+Vim5LUNHZsfEedaKJbrV8tuztq+kGnlfszkDSeThtH07ZBYf7aVhFqXLInE/3G8d/xQKMJ0b/TEJe1HmYWcq/DhRtO6xp/NGQoiU3yhuyGFNlPOHP9ctxhSwQNpM2VdUyyZJL+zzr2Bg/rR3lFYh46tsD45YAyrNvSCtMXdJDkolCfeIQPp+dvVG0Es3QDDcnfi5IaE/TjSZD5MNOz7+91BfJYnPnH69PgZZZWtO2TWZahav1VF89xM92BYX4aA+UCZLpOD69w2YNs9F0xYNhE08nIi4Ge+mwyHiUwn1Cx/S4lhPSmzKNNQOWRGtYt7M225c/WAS66uguW/DAq5hExnt7/drPPmJxOsXtU692DcIxMfMiwEUR63bBp4164YMhFRyLVyfZc3XugDx2sv5OdebO33sjKvG/n8Vc3dJvL8t/7l4DEGSlTCSj0lcmeoZeicgU7uFYWmYoatqM4yCGOi9q/kkQSSUj6dVejUlaKQMnNQmeCGFAr3+ad7fQVjG7hr8/2V+V09eVH+upddF4+KuZE7aFtSn5rNiMNlmQhOaLH2R7TsXOWUPC0/0yny4oRK63Mlsbb++4xQJpD0xVO99W82RO2PuB6JnnQYCiETwTNDuqa6b2j36zJ2eYC19xpXN3R9zFssmYAQJ/jUIwZv7BiETPZz/vrfAzdJDCeCNPXwfuagjLmQwffzPltXEORgFbOaN5Ozk5HEIpjHle46BwrJK0CmM03nGITR3E0yHPfEmZ3gbgt3VTzlEKtl5z5fSkOJac0UYnsConWsaH8IpMx6Q+A4Y9UpEM4Lsl3PdtM15cNg0fhndZLsOJxkIqbcfmaIdXuTAL+LwsEFKxDo+8O+ksoEREJBUbKBm0Gx9idcxUMeLxRIplKz+Sv9j7ywf2t7Q7HWxDtyKWbYqoYcYJV0Hsk3NDIdE7O1jqWU5QXqXHnzZYPW6Lz5w3t7nPCn3nWNXCgOW5WqWLc6G0oMp0IeCZdGyGAsxAx/k3xnYyvanpTt12wQV9He55OJN9L50BjzclAjLVi/2N/RqQuHYV3vDhZnTVoZuj/OE3Jj+XLMMKkhbF0cql6/xScDAycBw7Z0ablxuMk0sXZ0yGy+UdY9Xn/RlhAUe2yMSlEATOe7IcrfszK05rHWbWVR6+cn8C5lqrzMtrNQvvtIOMkj/UadzFeoZeKzXGYi7rv4CLyHGYrYbXJ3M6W+cVgihHj3k+1j+e4BvhuGSCa4tu9XsZZ9fn/9AHJVrtsvTy2nYlLrWzCmFe7/ynKWjKuwLsUEtF4IZ8ZrhsU6va3aOac0mnhehO8KZikqu1W+y5UNK/c5z0S7NMRn7WVQxM14EaFRBMdBClsH1BW3n6xTF4doYp4MOH16WhuZiZztaN/WAYG7OP6sDGGKuxp/BO15py4pNw43mQQY1EjL4gGKxiOJWNsjqgaKkAe18DJQ/haXkJCBWOe2ZMhd6L+SJi+uJzi23JzZGOKDiV7fCyUTcGx45anQnef6Nz9QrztGA+sznFfld6nT+RPq+02/RRsimXiOaWLSn643qzyZye2HuI26Brr2U+7kZdmr9fnnfLRhJfo5e6JtlyLfNYNcwiGDW8dUIApU3DQb6w58d8m1UafKDq6p5FEJdIpC8g6CQa4y095xMh+pHhpCKtw8W3a82D4hKMrmZ2oQRUC9HCz68RXtD6rJqwuvkxsUJKy3YSFkhG9/sBhEJufPZ/8AljwLzqqtHV0asZ4RhfYURIiN8SnkWRxa7Yp2dy0hZSA/5ZIuL7rwiB8Via+UfKb9oIw1x4/E4C5vgTiOj1REWy3Jx3ppKdLrY0B9oVj7XrlFY9inSfu894gY1ktFk4kotz+I/r4g5UtfEWru7IMOL9EpBoJuXtiZXBLDsqX8jg/Cit6MJUUN9PdsnWIYYNo3qxlb3INXukcMPD9yO/whnSo7ypv+E0pzQPJxoFgOP69+AAPm/HRiMa9nyoCxVYmrS6rWb4aQdshWOctODdxK56BUrLlPVa75urpsQXHPA/Gmcdh6Xs3c7CrTzC08pM7+vEyh4K7RD+532zjzPt66f+kj03PfEys1HchyXY8vS4YfPQRFyXPw7OHSm04sibZOgSx+J0Rmf3w56e9VGx7DuFbzsXDJw6dm0Wc1A7Ll2deU5k/L74Vi4sRSTEZLSyrXPMqHG2U8Uut0n316Wk2+/aOiC1w2RFtf49uxRO9gHYdEJsKwfuc+vQAiCani27Kurel+ms7MMTE+77Tx4rKYMxl9ryr4wdOCII9aoFAzMU2e2mTgd6O5KusTuOmga1C9oT8/Q/UmlJHnEfViwKd+WWZqHQyxtmkYoIN7+IsHwyxb9/u46UO8xZ0Kvt+gcp3bRn7qM7i84OLel6Xl5g1bl+rYwsDNpUg8qmKpY6o/uZZJxTexXjCap4IETFPUoXEqLqldeuyYaHyKjEdqnRLSFDza/DGpj2kP5gWivDzt7epxqWLYL/L/9OrYjDi20roY7uBPxvFB1wABAig1vqLl5JDJq0ncooc7K6Syr8x70yZAgAADMcqwpodquCblZgbXzHD3hnphOECANzOwBm3Vm2TuRk00YSm+0z5AgABFgM/jeTcwGKbdzaOH/K9dDhAgQAqiLT/zj3L0xkMomnh2LLfcAwQIUAD4BqTqjQtlo0GIxHPNhGy/l0WsSTpVgAABsmLS8rEhvuU32topZ1jcbPBuxMg78VoWy/Z+gAAB8oC30XmPjofA4ta1yYZDSaztRRWJ1+pUAQIEKAh86yt37sTFa9taVtH6G3liIUCAAEVCXqbCWzpOPd98dUG+f4EaIECAkQSl/h8mmq15k1yedAAAAABJRU5ErkJggg==;" parent="1" vertex="1">
          <mxGeometry x="-1568.38" y="-494.21999999999997" width="80.5" height="32.43" as="geometry" />
        </mxCell>
        <mxCell id="LXhwEYFynrwZ-pUap6Co-17" value="E-signature" style="shape=image;verticalLabelPosition=bottom;labelBackgroundColor=default;verticalAlign=top;aspect=fixed;imageAspect=0;image=https://logos-world.net/wp-content/uploads/2021/08/DocuSign-Symbol.png;shadow=1;" parent="1" vertex="1">
          <mxGeometry x="-1927.48" y="-494.22" width="120" height="67.5" as="geometry" />
        </mxCell>
        <mxCell id="LXhwEYFynrwZ-pUap6Co-39" style="edgeStyle=orthogonalEdgeStyle;rounded=1;orthogonalLoop=1;jettySize=auto;html=1;curved=0;strokeColor=#007FFF;shadow=1;exitX=0.855;exitY=1;exitDx=0;exitDy=-4.35;exitPerimeter=0;" parent="1" source="LXhwEYFynrwZ-pUap6Co-54" edge="1">
          <mxGeometry relative="1" as="geometry">
            <mxPoint x="-1500" y="-749.1611764705883" as="sourcePoint" />
            <mxPoint x="-1493" y="-514.22" as="targetPoint" />
            <Array as="points">
              <mxPoint x="-1493" y="-524.22" />
            </Array>
          </mxGeometry>
        </mxCell>
        <mxCell id="LXhwEYFynrwZ-pUap6Co-45" value="Username&lt;div&gt;Email&lt;/div&gt;" style="edgeLabel;html=1;align=center;verticalAlign=middle;resizable=0;points=[];" parent="LXhwEYFynrwZ-pUap6Co-39" vertex="1" connectable="0">
          <mxGeometry x="0.1712" relative="1" as="geometry">
            <mxPoint x="-8" as="offset" />
          </mxGeometry>
        </mxCell>
        <mxCell id="LXhwEYFynrwZ-pUap6Co-51" style="edgeStyle=orthogonalEdgeStyle;rounded=0;orthogonalLoop=1;jettySize=auto;html=1;dashed=1;" parent="1" source="LXhwEYFynrwZ-pUap6Co-48" target="LXhwEYFynrwZ-pUap6Co-49" edge="1">
          <mxGeometry relative="1" as="geometry" />
        </mxCell>
        <mxCell id="LXhwEYFynrwZ-pUap6Co-53" value="Salary Payout" style="edgeLabel;html=1;align=center;verticalAlign=middle;resizable=0;points=[];" parent="LXhwEYFynrwZ-pUap6Co-51" vertex="1" connectable="0">
          <mxGeometry x="0.0135" y="-2" relative="1" as="geometry">
            <mxPoint as="offset" />
          </mxGeometry>
        </mxCell>
        <mxCell id="LXhwEYFynrwZ-pUap6Co-48" value="Bank" style="shape=image;html=1;verticalAlign=top;verticalLabelPosition=bottom;labelBackgroundColor=#ffffff;imageAspect=0;aspect=fixed;image=https://cdn4.iconfinder.com/data/icons/48-bubbles/48/04.Bank-128.png" parent="1" vertex="1">
          <mxGeometry x="-1080.0000000000002" y="-420" width="99" height="99" as="geometry" />
        </mxCell>
        <mxCell id="LXhwEYFynrwZ-pUap6Co-49" value="" style="shape=image;verticalLabelPosition=bottom;labelBackgroundColor=default;verticalAlign=top;aspect=fixed;imageAspect=0;image=data:image/png,iVBORw0KGgoAAAANSUhEUgAAAgAAAAIACAYAAAD0eNT6AAAAAXNSR0IArs4c6QAAIABJREFUeAHtnQfUPUWR9h9yxkQ2oCTXnAVFAbO4Krr4mVDQ3YP7KSgiCipGXMwoJlhEXBd1VcSwy666iwEFBQUR44qKokRRUUkCAt83JXPxvsMNE7qmqrqfOed//u+9d6a7+lfPVNfM9HQD3KITWAXAIwC8B8BZAC4G8P/4jwyoAWqAGihSA9cAOA/AVwAcBGCb6J0c7Z9NYGcAp/MkL/IkZ5LHRJcaoAbaaOA6AB8AsPnsboTfRiSwH4Dr2fmz86cGqAFqgBpooYELAWwfsbOjzSsJHNrC2W0yQ+7DKwhqgBqgBsrRwFVMAlZ2ptE+PQ3ADUwAmPFTA9QANUAN9NCA3AnYLFrHR3uB9QBc1MPhzPDLyfDpa/qaGqAGlmngaHao8QgcyM6fGT81QA1QA9TAQA3IwMCt43WBZVt85kCnL8sK+TuvHKgBaoAaKEMDckHJLQiBTfnsn1k/E0BqgBqgBhJpQOYJ4BaEwA6JnM7svozsnn6mn6kBamCRBs4N0vfRTAC7MQFg5k8NUAPUADWQSAMyYyC3IAT+TyKnL8oI+RuvGKgBaoAaKEcDQbo/mskEoJyTkgGYvqYGqIExNMCeNQgBJgAMCGMEBNZBnVED5WggSPdHM5kAlHNSMgDT19QANTCGBtizBiHABIABYYyAwDqoM2qgHA0E6f5oJhOAck5KBmD6mhqgBsbQAHvWIASYADAgjBEQWAd1Rg2Uo4Eg3R/NZAJQzknJAExfUwPUwBgaYM8ahAATAAaEMQIC66DOqIFyNBCk+6OZTADKOSkZgOlraoAaGEMD7FmDENBKAKRc/iMDaoAaoAb8auAwpZlgg3R/NFNOTo2MkGRJgARIgAR8E2D89+0fdesoAHXErIAESIAEXBJg/HfplvGMogDGY82aSIAESMATAcZ/T94wsIUCMIDOKkmABEjAAQHGfwdOsDSBArCkz7pJgARIwI4A478dexc1UwAu3EAjSIAESGB0Aoz/oyP3VSEF4MsftIYESIAExiLA+D8Waaf1UABOHUOzSIAESECZAOO/MmDvxVMA3j1E+0iABEhAhwDjvw7XMKVSAGFcRUNJgARIICkBxv+kOOMVRgHM9tkqAB4B4D0AzgJwsdKMiRqzMLJMndktybVsrtcAOA/AVwAcBGCb2aEj1LeM/6Hcld5YCuDmTHcGcDo7fJUpotmJlt2J5uT/6wB8AMDmNw8hYb5h/A/jKh1DKYCVXPcDcD07f3b+1AA10FIDFwLYfmUYCfOJ8T+Mq3QMpQD+yvXQlid8TlcxbAuvyKmB4Rq4KmgSwPj/1/hf5F8UwI1ufxqAG5gA8KqPGqAGempA7gRsFqwXYfwP5rDU5lIAwHoALup50vPqafjVExmSYS4aODp1gFYuj/FfGbD34ikA4EB2/rzqowaogQQakIGBW3sP+lP2Mf5PwSjxTwoAODPBiZ/LFQzbwatxamCYBuSCIsrG+B/FU0p2li6ATfnsn1d+TACpgYQakHkComylx/8oflKzs3QB7JDwxOeV07ArJ/Ijvxw0cK5atE5fcOnxPz3RYCWWLoAnMQHg1R81QA0k1IDMGCgziUbYSo//EXykamPpAnhuwhM/h6sXtoFX4dTAcA2sqxq10xVeevxPRzJoSaUL4EVMAHj1Rw1QA4k1IGOLImylx/8IPlK1sXQBHJb4xOfV0/CrJzIkw+gauL9q1E5XeOnxPx3JoCWVLoATmADw6o8aoAYSa+BZQfqD0uN/EDfpmVmyAGSgDmcA5NVm9KtN2u9Pw4frheykJZcc/5OCjFpYyQK4R+Ksn4HYXyCmT+gTCw18L0iHUHL8D+IiXTNLFsCrmQDw1i81QA0oaWA73dCdpPSS438SgNELKVkAP1Y68S2uOFgnr3SpAV8aeH2AzqHk+B/APfomliqAx7Lz55UfNUANKGrgYgDr6IfwQTWUGv8HQcvp4FIFcLLiic8rMV9XYvQH/WGlgX2cdxalxn/nbhnPvBIFoNVmCTLyWqGUz39kQA3E0cBvlC4ILgFw6/HCeeeatGJhZ0N4gA2B0gRwCwDnKZ3skgA8wcaNrJUESGAAgWMVY8LRA+zSPrS0+K/NM1z5pQngeMUT/SoAUeYADydUGkwCigSephgX5MLgmYq2Dym6tPg/hFWWx5YkgJcrn+SfzFIhbBQJ5E9gAwBXKsaHPwK4l0OMJcV/h/jtTSpFALLq3w2KJzhv/9trmRaQwBACH1GODxcC2HqIgQrHlhL/FdDlUWQJAtgPwPXKJ7e88rNGHpJgK0igSAKPUo4RcpEgSYCnOwElxP8ixdy20TkLYG0A/zzCSS0n9uvaAud+JEACLgnI2iA/GiFeyOOApzohkHP8d4LYtxm5CuABAM4a4WSWzv9PADbx7WZaRwIk0ILA3iPFDIkbH3DwimCu8b+Fq7mLEMhNAHeqTyztW/5yAk/+HUEpkQAJZEFA7hpeMHVuT85xrf9l/oEXGs4YmFv8z0KEYzYiBwGsBuAxAD4K4NoRT14JCjJyeIsxHca6SIAEVAn848gxROKIjCF6A4A7q7bs5oXnEP9v3ip+05pAJAHIM7pbAdgKgAzYkcxZXr3TmsWrTdb/5takuSMJkEAEAqsDONsgCZjEGxmH8F4AewLYHsDmANZXAhcp/ishKLtYrwKQzv4RAN5TP8uXDHlygnj5/3wAG5YtH7aeBLIksKvDeHNNPYvpV6pxRwcB2CYBea/xP0HTWEQbAh4FsDOA0x2egM3EY/c2gLkPCZBASALHOY9B19XjneQOQd/NY/zv2xYe14OANwFIZjvmAL5mp97286d7sOYhJEACcQjI2J7fOk8CJF7J3ALyqKDP5i3+92kDjxlAwJMADg1wsskJJ7f+bzOAOQ8lARKIQeBJQWKSrEPSJwnwFP9jKCIzK70IQBbj0J6qt+3V/aL95LbbwzPTAJtDAiQwn4C85rsoJnj5Te4EbDa/GTN/8RL/ZxrHL/UJeBDAegAuCnKS7a/vEtZgTEAGoG4J4NHVLeB9K1tklse3V6OxjwLw8fp1U/n78CppfU09Wnsnvg5q7DW96mWK75OCxKeuSw97iP96nmPJSwl4EMCBQU6uDy6lyR0iElinfuPkjdV8EqcOXBVOJpH5LABZefLeEWHQ5pkEZKbPcwPEKblD2WXBIQ/xfyZwfjkOAQ8CODPAiXUCF/sZR5Aj1bIWgKcAEL/KVM5at3F/Wb/TLVNTc4tNQF67i3CnUi6o2m4e4n9bW7mfAgFrAWwa4Nm/vHcrV4nc4hPYtpp//d1Go7tlbYp9AKwbH2OxLZC7OpcqJowpElGJV2036/jf1k7up0TAWgA7OD+ZvqQ4C5eSS1nsDAIye6Q8t/+zA71dUtkn4wpuMcNOfuWfwN1GXi+ga1Igjyrabtbxv62d3E+JgLUAdnMQkOedYDLga00l7ix2HAIyKvpYp3NLyO3kvQDIoENusQhs53hMgMwY2Hazjv9t7eR+SgSsBaBV/7xOvc338jqizPG/qhJzFqtPQDpVWdrV++1a0ePXAdxdHwlrSExgIwBfdnoB07apWvG3bf3cz5iAtQC06m/T0c/a5w8AOMWvsSgHVn/HalT/yU4D8yzNyXcyEHE/3g0Y6PnxD5c7hO9zqLW2JLTib9v6uZ8xAWsBaNU/L9Au+v60jq/QGLuO1c8g8NhqlcjfOQzIi3Q3/dvnq0GKt57RLn7lm4A8yrRclXRaQ/J3200r/ratn/sZE7AWgFb9zRNi0ecrABxQrce9mrEvWH1/AnLLP8o6Eou0KL/9FMBd+qPgkUYEZFEeLwsItUWgFX/b1s/9jAlYC0Cr/mVBdvK7LOpzB2MfsPphBCRxk4F+E5/m8L+MXZDZBbnFIyBLCZ9trMe21LTib9v6uZ8xAWsBaNW/rBOQgVcMsMbiS1D96tVjmw8bB9tlWuv7+5X1DIUJMLGIkQmILves3vL4hZE22zZXK/62rZ/7GROwFoBW/bOCriwzLDO/PdKYOatPQ0AGYP27UYCdpS+N7yQJeFgaXCzFgIBoVBKB74+s07ZN1Yq/bevnfsYErAWgVf90MJYs/BAO8DNWWtrq5Zl/brf9pzU7/fdlAO6ZFh9LG5mA6PURtWZlzNG0fzX+bts8rfjbtn7uZ0zAWgBa9f+wfpd/R77Pb6wwneplFT6NwOm1zPMB3E4HJUsdmcAGAJ5aJwNabw60bZJW/G1bP/czJmAtAOv6jfGz+h4Enh5g/QiNRELGrcizZW75ELCOf9b15+PJoC2xFoB1/UHdVqzZdwIgt8Q1OtgIZb6hWM/n2XDr+Gddf55eDdQqawFY1x/IVcWbKlMzf63gzl8SFBnIukvxSsgHgHX8s64/H08GbYm1AKzrD+q2Is2Wdc4jXKVr2ygTBa1dpALya7R1/LOuPz+PBmuRtQCs6w/mrmLNvT2Aq5gA3JQAvbpYJeTVcOv4Z11/Xt4M2BprAVjXH9BlRZr8L+z8b+r85Q6DJEOcwTL+qWAd/6zrj+/B4C2wFoB1/cHdV4T59wBwnWECICv1fRfAidWyvccDkAV7TgfwS+O3EY4swvt5N9I6/lnXn7d3A7TOWgDW9QdwUfEmftag85cOXhaIuveSeSQ2rpePls5YlpLWfv4/Xf41vAsQ/tywjn/W9Yd3YPQGWAvAuv7o/svdfnntT0a+T3d8Wn9LPZ+sphe+T0+oMsHLPiPP//7unrbyMB8ErOOfdf0+vFCwFdYCsK6/YNeHaPqbR+r8vwfgQYmIrAvgsJEeW/wegNTHLSYB6/hnXX9Mr2VktbUArOvPyJXZNWUtAJeMkAD8MwCpK/UmCcWvR7D/uakNZ3mjEbCOf9b1jwaaFc0mYC0A6/pnU+G3Hgjsptx53lDNKvgS5YZuA+Ac5XbI5EjcYhKwjn/W9cf0WkZWWwvAuv6MXJldUz6g3HG+eCRiWwCQxXy0xi7IGxIyGJFbPALW8c+6/ngey8xiawFY15+ZO7Npjkz7e5Fipzn24LntAVyt2J7nZOP5shpiHf+s6y/L2w5bay0A6/oduoQmAXiAYmd5FoA1DSjLGwJadwE+ZdAeVjmcgHX8s65/OEGWMIiAtQCs6x8EjwerEXiRUmcpz/0fqGb14oJXqycU0kgCfrdkvoLFlvFXKwLW8c+6fivurLcmYC0A6/opBJ8EPqiUAMhMfpbbo5XaJUnFfS0bxrp7EbCOf9b194LGg9IRsBaAdf3pSLKklAS+o9RR7pjSyJ5labVN+42Gns3lYQsIWMc/6/oXoOFPYxCwFoB1/WMwZh3dCMitcpnmNvWt8p90M0Ntb5liOHXbpLwT1CxmwVoErOOfdf1aXFluSwLWArCuvyUm7jYigU2VOkiZnc/DJq8Fakxv/EcAq3toIG1oTcA6/lnX3xoUd9QhYC0A6/p1qLLUIQRk9T+NK+S/G2JU4mO/rdRGeXuCWxwC1vHPuv44nsrUUmsBWNefqVtDN+vhSp3jto6ovE2pjfL2BLc4BKzjn3X9cTyVqaXWArCuP1O3hm7WU5Q6x/UdUXmcUhvHnuDIEdKQpljHP+v6QzotJ6OtBWBdf06+zKUtT1boHOWZu6dNlg7+s0I7j/PUSNqylIB1/LOufykg7qBLwFoA1vXr0mXpfQg8XqFjlDEF8naBp+1UhXYe46mBtGUpAev4Z13/UkDcQZeAtQCs69ely9L7EHiMQscoCYCnRwDC5Y0K7fynPsB5jBkB6/hnXb8ZeFZ8IwFrAVjXTx34I7CLQscoCcDmzpr6MIV2ykyD3OIQsI5/1vXH8VSmlloLwLr+TN0auln3V+gYJQHYzhkVWfHwlwnbeimAdZy1keYsJmAd/6zrX0yHv6oTsBaAdf3qgFlBZwJ3TtgpSsc/+Xe/zpboH3DwlH0TO/v+f4i+uawhMQHr+Gddf2KcLK4rAWsBWNfflRf31ydw24Sd4nRnurO+6Z1rWBvA2Qna+ysAt+pcOw+wJmAd/6zrt+ZffP3WArCuv3gBOASwYYIOcbrjn/wtbxd43GR54ssHtPlaAB4WOfLI1rtN1vHPun7v/snePmsBWNefvYMDNlBe17thQIc46fCb/z/DMYtHALiiR5uvBCCTCnGLScA6/lnXH9NrGVltLQDr+jNyZVZN6dMZNjv85ue9nROSsQ9ndEgCzqxWAPQ4rsE5ZlfmWcc/6/pdOaNEY6wFYF1/iT6P0OaLOnSEzY5+3ueXBGi4vBkgUyGfPGemQLkz8lUAezmc2CgAXncmWsc/6/rdOaQ0g6wFYF1/af6O0t6fKiQAMuI+0ibTBctcAXKO7AHgoQA2itQA2rqUgHX8s65/KSDuoEvAWgDW9evSZel9CfxAIQF4TV9jeBwJKBGwjn/W9SthZbFtCVgLwLr+tpy437gEvquQALx+3CawNhJYSsA6/lnXvxQQd9AlYC0A6/p16bL0vgS+o5AAvKGvMTyOBJQIWMc/6/qVsLLYtgSsBWBdf1tO3G9cAl1Gw88b9Nf8Xhbf4UYCnghYxz/r+j35okhbrAVgXX+RTg/Q6G8q3AF4S4B208SyCFjHP+v6y/K2w9ZaC8C6focuoUkAvqGQALydZEnAGQHr+GddvzN3lGeOtQCs6y/P4zFaLO/BN2/hD/38zhhNp5UFEbCOf9b1F+Rqn021FoB1/T69QqtOUkgA3k2sJOCMgHX8s67fmTvKM8daANb1l+fxGC3+kkIC8L4YTaeVBRGwjn/W9Rfkap9NtRaAdf0+vZKnVevXM9odB+B/AVym0MkPfUyQ4nhZne+8esreVwDYLk93slUJCFjHP+v6EyBkEUMIWAvAuv4h7HhsOwKyut8LAFycaYe/LGm4HsCHANy2HS7uVRAB6/hnXX9BrvbZVGsBWNfv0yv5WCVX/Z8ttONvJga/AbBLPq5lSxIQsI5/1vUnQMgihhCwFoB1/UPY8djFBNYBcBo7/xVvM1wN4CGLsfHXgghYxz/r+gtytc+mWgvAun6fXsnDqg+z81/R+U/uCPwawO3ycDFbMZCAdfyzrn8gPh4+lIC1AKzrH8qPx88msBM7/5md/yQJOHY2Nn5bGAHr+Gddf2Hu9tdcawFY1+/PI3lY9DUmAAsTABkY+Dd5uJqtGEDAOv5Z1z8AHQ9NQcBaANb1p2DIMlYS2ALADUwAFiYAcifg1Sux8VOBBKzjn3X9BbrcV5OtBWBdvy9v5GHN37PzX9r5SwIg6x1wK5uAdfyzrr9s7ztovbUArOt34ILsTHgDE4BWCcBF2XmeDepKwDr+WdfflRf3T0zAWgDW9SfGyeIAHMUEoFUCIOMAVqViiiZgHf+s6y/a+R4aby0A6/o9+CA3G97GBKBVAvD73BzP9nQmYB3/rOvvDIwHpCVgLQDr+tPSZGlCYH8mAK0SgB9SLsUTsI5/1vUXLwBrANYCsK7fmn+O9d+PCUCrBOCIHJ3PNnUiYB3/rOvvBIs7pydgLQDr+tMTZYmrAPglk4ClScBjKJXiCVjHP+v6ixeANQBrAVjXb80/1/r3ZQKwMAE4iwMAc5V+p3ZZxz/r+jvB4s7pCVgLwLr+9ERZohBYA8CPmATMTAJk9P/DKBMSAGAd/6zrpwiMCVgLwLp+Y/xZV39nADLSfTL/Pf+/kcUrs/Y6G9eFgHX8s66/Cyvuq0DAWgDW9SsgZZFTBHYEcAmTgJuSoDcDkDES3EhACFjHP+v6qQJjAtYCsK7fGH8R1d8RwJcKTwJk1r+nF+FtNrILAev4Z11/F1bcV4GAtQCs61dAyiLnEHgsgE8DuKKQZEAWRPo2gIMArD+HCb8um4B1/LOuv2zvO2i9tQCs63fgguJMWAfA3QDIa3Di/+l/r1JKDuS5+3Q9mn/vBmB7AJsU51k2uCsB0aHG2Ji2dljX39ZO7qdEwFoA1vUrYWWxPQk8VSkgyhLF3EjAGwHr+Gddvzd/FGePtQCs6y/O4c4bLLfLU18RXcmBd869Xq551vHPuv5yPe+k5dYCsK7fiRtoRk3gSIUE4PukSwJOCVjHP+v6nbqlHLOsBWBdfzmejtHSLygkAJ+J0XRaWSAB6/hnXX+BLvfVZGsBWNfvyxu05scKCcBhxEoCTglYxz/r+p26pRyzrAVgXX85nvbf0rUBXKuQADzff9NpYaEErOOfdf2Fut1Ps60FYF2/H0/QkgcodP4yoPDRREsCTglYxz/r+p26pRyzrAVgXX85nvbf0r2VEoCt/DedFhZKwDr+WddfqNv9NNtaANb1+/EELdF4A+APfAWQwnJMwDr+Wdfv2DVlmGYtAOv6y/ByjFaepnAH4Isxmk4rCyVgHf+s6y/U7X6abS0A6/r9eKJsS9YEIBP2pJ4E6K1lY2XrnROwjn/W9Tt3T/7mWQvAuv78PRyjhTspdP6STMjUwtxIwCsB6/hnXb9XvxRjl7UArOsvxtHOG/o6pQSAAwCdO75w86zjn3X9hbvfvvnWArCu394DtEAIfE0hAbiUAwApLucErOOfdf3O3ZO/edYCsK4/fw/7b+G6AK5WSABO9N90Wlg4Aev4Z11/4e63b761AKzrt/cALXiMQucvz//fTLQk4JyAdfyzrt+5e/I3z1oA1vXn72H/LTxCKQHY1X/TaWHhBKzjn3X9hbvfvvnWArCu394DZVuwKoALFRKAawCsXzZatj4AAev4Z11/ABflbaK1AKzrz9u7/lu3s0LnL7f/T/LfdFpIArCOf9b1UwLGBKwFYF2/Mf7iq3+3UgLwquLJEkAEAtbxz7r+CD7K2kZrAVjXn7VznTduFQC/UkoAdnDedppHAkLAOv5Z108VGBOwFoB1/cb4i67+YUqdvywAtHrRZNn4KASs4591/VH8lK2d1gKwrj9bxwZo2MeVEoDPBGg7TSQBIWAd/6zrpwqMCVgLwLp+Y/zFVr8xABmpn3rxHylv32KpsuHRCFjHP+v6o/krO3utBWBdf3YODdKgA5U6/xsA3CEIA5pJAtbxz7p+KsCYgLUArOs3xl9k9TL47ydKCcA3iiTKRkclYB3/rOuP6rds7LYWgHX92TgyUENkhj6NW/9S5gGBONBUErCOf9b1UwHGBKwFYF2/Mf4iq9dY+U86f7n9v2WRRNnoqASs4591/VH9lo3d1gKwrj8bRwZpiLyfr3X1f1oQBjSTBCYErOOfdf0TDvzfiIC1AKzrN8JebLX/pZgA8PZ/sbIK23Dr+Gddf1jH5WK4tQCs68/FjxHaca/6Nr3GHQC5/X/HKQir1W8DPATAHgBeDuBwAMcAOA7AiQDkjsHX67/ls/z7FICjAbwFgLypIMfKXYtNpsr2/Kcwfkfdrj8C+H31WuRvAZxct+luno0v0Dbr+Gddf4Eu99VkawFY1+/LG3lbI52rRucvZZ5Xv///fgDfqjrvqxTqurwu+0gAewO4L4A1nLhsOwBfatFmSZQ+B2ArJ3aXboZ1/LOuv3T/m7ffWgDW9Zs7oBAD5Epcq/O3LPdKAJ+v3z6Qq295xXHMbT0AhwD4U0e+lwF46piGsq6ZBKzjn3X9M6Hwy/EIWAvAuv7xSJdbk3SKcrvdsqMeq+5zATwfwFrK7l4VwHOrOxEXDOB6HYCnKNvJ4hcTsI5/1vUvpsNf1QlYC8C6fnXArABPH9BJjdVxp65HVjl8AQC5Qk+53aIu93uJmF4N4C4pDWRZnQhYxz/r+jvB4s7pCVgLwLr+9ERZ4jSBtQH8IlFnlbqTHqM8eURwPICnAVh/GkyHvzesxh48rhrk+CEAUl5qu2VehrEfXXRofta7Wsc/6/qzdm6ExlkLwLr+CD6KbOOrFTqs1B3gWOXJ1fa3q8mK/gXA/gBkRkR5w+A+9aC8rQE8GMCT6wGN7wbwHQByq17bxl0iiyyw7dbxz7r+wK7Lw3RrAVjXn4cXfbZCbi1Lp6fdebH84Yzl7gK38QlYxz/r+scnzhpXELAWgHX9K2DwQzICMkhN3j1n5xyDgQxe5DY+Aev4Z13/+MRZ4woC1gKwrn8FDH5IRkAGwLHzj8NA5gfYIJn3WVBbAtbxz7r+tpy4nxIBawFY16+Etehib1c945ZZ6JgAxGKwedGqtWm8dfyzrt+GOmu9iYC1AKzrvwkE/0hG4AR2/iGTn9skUwALakvAOv5Z19+WE/dTImAtAOv6lbAWW+zj2fmH7PxlzQAZt8FtXALW8c+6/nFps7abEbAWgFb9rwfwAAa1m/lb+4s289Hz0YC/RwNf0BYGy19BQCaI2g2A1t2yFZUt+KAVfxdUyZ88EbAWgFb9k07mIgDvBHBvT9AztUVuIV/POwAh7wDItMLcdAmsWc/x8NkeazdM4lnb/9u2RCv+tq2f+xkTsBaAVv2zTpQzAewJQE5EbukJPIGdf8jO/9cAZMZGbjoENqtWjTwUwG9GPD/atkQr/ratn/sZE7AWgFb9sxKAyXfnA3gRE4HkyttnxAA38SX/H/44QdZq4JaewO0BHG00GVbb1mjF37b1cz9jAtYC0Kq/Tccgc9TvwXnQkynwACYA4e4AfDCZ91nQhIAs2PT2EW7zL4pxE1uW/a8Vf5fVy9+dELAWgFb9i06O5m+yGMpdnfgjshl7MwEIlQDI9L+rRRacQ9vlMdh5Ds6Dtmi04m/b+rmfMQFrAWjV3+zkl32WOetfxrcGBqnxQQ4C3zI/8/cb12d4KbU+SOvNgzdRHNHfR7NN++Z91oq/8+rj984IWAtAq/4+J40c80UAWzjzURRzZCAZZwAc/ky+r3bbHPcDAPeKIqggdj4agLxt1Ib/WPu0RacVf9vWz/2MCVgLQKv+ISfahQC2N/ZL1OqPchYIZ+ngtwC+B+AUACcCOB7ARwCI7ZN/H62TwR8BuDZAm2a1c/q7q6o2vJaj/ZOfVvuNtFzztC/b/N22oVrxt2393M+YgLUAdncaXP8E4JnGvolYvaxpL+zaBCmtfaSzk1c+/w3AawDsVa1M+AgAdwawTg+o8troA6vn5W8/MNaLAAAgAElEQVQA8DPjtvVhJgnOlj3azUPmExBNfNipFmRhp7abdfxvayf3UyJgLYCdnZ5EEmjlRHqxEveciz14JJ+Kf84GIFfr8kx7VwB3Un62LdPlyi3fzwD480jt7NPpCxuZcEZmw+SWlsC6VUL4Oce+v7hDc63jfwdTuasGAWsBbOv4RJoE3oM0wGdc5ioAPqHgVxld/bG6s38YgA2NGcrArxcCOLVOFid6sfz/CgDyat/djdnkWr1M4ftVBW2n1Izc/Wq7Wcf/tnZyPyUC1gKQzsLDazPLTsD9lfjnWuzq1WDK9w8MlPL8Xcp4NoA7OgclSyD/Yz0S/PKB7V6mxebv1wGQV1n/AcAGzjlFNk9u+3u+8p/oQqY+b7tZx/+2dnI/JQIeBHDkyAFzcqJ0+V/muH+Gkg9yLlYWPDmnpX8vqQfjPQvApoGhSPKzQzUWQu4cfboagyATTnXRWpt9f1U/gxZNchlffbHIo59PKfixja+77rNLBxwe4n8Hc7lragIeBLAVgGsCnFwyuI1vB3RXoEw28yQAxwD4IYDLqjkXrgQgb1v8V/UsXcYM3F/52X13q9MecSsADwUgi+7IvPAygExeOf1+zeHSKf3L83v5/Lua1+frKWWFk4xzkEcP3MYl8MYp/3TtkMfc/5sdZzb1EP/H9SRrW0HAiwAOD3KCXVC9Krb5CoL8QAIkkDOBpzka47EomZBHQTt2dISX+N/RbO6eioAXAawB4KQgSYDYKbcEuZEACeRNQO5ORpncStbi6Lp5if9d7eb+iQh4EsBG9eQsi7JcL7/JtMHcSIAE8iUgFyWnBbgokUdGh/R0g6f437MJPGwIAW8CWAuAPA7wPvuarB0gE8twIwESyJPAywN0/vJIUiZT67t5i/9928HjehLwKgCZH+AIAOc7Pgm/3HHATU8X8TASIIGRCchrpzJQ1csdx2k75Ir/9Ho+DJmUaMjmNf4PaROP7UDAuwBknoBtAOxUjYgWW2XJWXknX14d/IqDk5TTBXcQG3clgSAEZBbF6U537L/lDRmx4S0AXlBPZy2v1MpbSBsnZOg9/idsKouaRSC6AGRyDnnvVRKC6Vepxjphfw5AbOBGAiSQBwEZST9W/JiuRya+krkj/mZEjNHj/4io8qwqJwHI7bAXGcwsuG+e0mCrSKBIAiePnADIncxHGpHOKf4bIYxdbY4CkBXfXgdABupNZ9haf8s4Bd4FiH0e0HoSEAKyxoRWnGiWK3FjT2PsOcZ/Y6Sxqs9ZAPeplvT9yUgn9B6x3E5rSYAEZhA4YaR4IdMK33JG/WN/lXP8H5tlyPpyF4CsGHfiCCf1GSG9T6NJgAQmBOTNI1nzo3mlnvKzjODvM2HPxMbU/+ce/1Pzyq68EgQgt+ePVz6xJUjcMzt1sEEkUA4BWaMhZWffLEuSi72c4Swh/jtD7sucUgQgs3p9QfkEP8yXa2kNCZBASwIytbessNjstFN+3q+lLWPuVkr8H5NpqLpKEsAtAPxU8SSXWblk3gJuJEACsQjISo0pO/tmWe92iqOk+O/UBbZmlSaA+yovPSzL2nIjARKIRUAm3Gl22qk+y/ggmeLc41Za/PfoA1ObShTAmxRPdnn9kBsJkEAsAj9UigmyRK+8jeR1KzH+e/WFiV0lCkAmDPK8xkCqKw+Wo3dVR7Zk20YDsp6J563E+O/ZH6PbVqoAXqyU8bcJCtyHnQc1kL8GZEXTLUeP6N0qLDX+d6OU8d6lCkDuAvyeSYDac092cPl3cPTxYh8fG6DfKDX+B3DNOCaWLID3MwFgAkANUANKGpBphb1vJcd/774Zxb6SBfAIpROfV0aLr4zIh3xy18BFAGRuAe9byfHfu29Gsa9kAawN4ComAbwCpAaogcQa+Ogo0Xt4JSXH/+H0MiihdAF8LfGJn/uVDdvHq3dqYLkGXhCkbyg9/gdxk56ZpQvgKCYAvPqjBqiBxBqI8PxfepXS479ezxqk5NIF8LLEJz6vjpZfHZERGeWugTsw/gchULiZpScAezMB4NUfNUANJNaALEMeYSs9/kfwkaqNpQvgqYlP/NyvbNg+Xr1TA4s1cAOA1VSjdrrCS4//6UgGLal0AezMBIBXf9QANZBQAxcH6gtKj/+BXKVjaukC2Dbhic8ro8VXRuRDPiVo4EydUK1SaunxXwVqpEJLF8AqAM5jEsArQGqAGkikgXcG6gBKj/+BXKVjKgUAHJnoxC/h6oZt5FU8NbBYA7vohGqVUhn/VbDGKZQCALYCcA2TAF4BUgPUwEANfBOA3FWMsjH+R/GUkp0UwI1gDx944vOqaPFVEfmQT+4auA7AjkpxWqtYxn8tskHKpQBudNQaAE5iEsArQGqAGuipgQOCxPxpMxn/p2kU+DcF8FenbwTglJ4nf+5XN2wfr+CpgdkakPf+D/lrGAn1F+N/KHelN5YCWMl0LQDyOOBaJgK8EqQGqIElGrgAwO4rQ0ioT4z/odyV3lgKYDZTmR/gCADnLwkAvCqafVVELuSSqwbkiv90AC8FsO7s8BHmW8b/MK7SMZQCWMxVRvRuA2CneuUs4cV/ZEANlKeB3QBsD2DjxSEj1K+M/6Hcld5YCiA9U5ZIAiRAAhEIMP5H8JKijRSAIlwWTQIkQAKOCTD+O3bOGKZRAGNQZh0kQAIk4I8A478/n4xqEQUwKm5WRgIkQAJuCDD+u3GFjSEUgA131koCJEAC1gQY/609YFw/BWDsAFZPAiRAAkYEGP+NwHuplgLw4gnaQQIkQALjEmD8H5e3u9ooAHcuoUEkQAIkMAoBxv9RMPuthALw6xtaRgIkQAKaBBj/NekGKJsCCOAkmkgCJEACCgQY/xWgRipSSwC5zgPOdnGOe2qAGqAGFmsgUh9YtK1MABYLmSc6+VAD1AA10E0DRXeqkRrPBKCbsBkIyIsaoAaogcUaiNQHFm0rE4DFQuaJTj7UADVADXTTQNGdaqTGMwHoJmwGAvKiBqgBamCxBiL1gUXbygRgsZB5opMPNUANUAPdNFB0pxqp8UwAugmbgYC8qAFqgBpYrIFIfWDRtjIBWCxknujkQw1QA9RANw0U3alGajwTgG7CZiAgL2qAGqAGFmsgUh9YtK1MABYLmSc6+VAD1AA10E0DRXeqkRq/O7o5licCeVED1AA1QA3M08ANkTrA0m3dmQkA5gmZ3zPIUQPUADXQTQMXl96pRmr/tkwAmABQA9QANUANJNLAmZE6wNJtXQXAeYkcz0y5W6ZMXuRFDVADuWngnaV3qtHafyQTAGb/1AA1QA1QAwk0sEu0DrB0e7cCcE0Cx+eWybI9vDqjBqgBaqC9Br4JQO4qcwtG4HAmAMz+qQFqgBqgBnpq4DoAOwbr92huTWANACf1dDwz5PYZMlmRFTVADeSogQPYm8YmsBGAU5gE8AqAGqAGqAFqoKUG5L3/Q2J3fbR+QmAtAPI44NqWzs8xk2WbeIVGDVAD1MByDVwAQCaT45YZAZkf4AgA5zMR4JUANUANUAPUQK0BueI/HcBLAazbp9/bGsA+AN4B4KMAjiv833sBHAzgoQBW6wNU8RgZ0bkNgJ0AyLoB/EcG1AA1QA2Up4HdAGwPYOO+/c2uAM5gJrkwk/w1gAMBrNMXMo8jARIgARIgAS8E1gdwPDv+hR1/83nTOQDu4cWBtIMESIAESIAEuhK4FYDvsPPv1PlPkoHLATysK3DuTwIkQAIkQALWBOR59ufY+ffq/CdJwO+qcRIyII8bCZAACZAACYQhsD87/0Gd/yQJOJXTK4bRPA0lARIggeIJbFiN9P8NE4AkCYAkAk8oXlEEQAIkQAIkEILAXuz8k3X+kgD8ewiv00gSIAESIIHiCXDU//JZlCa3+Nv8fxVfDSz+nCIAEiABEghB4Ce8A5D0DoAkCXwtMIT0aSQJkAAJlE1AXmFrc2XLfdpzemzZkmLrSYAESIAEIhBgx96+Y2/LSqbf5EYCJEACJEACrgm07dS4X/tEgQmAa8nTOBIgARIgASHAjj09AyYAPLdIgARIgATcE2ACwATAvUhpIAmQAAmQQHoCTACYAKRXFUskARIgARJwT4AJABMA9yKlgSRAAiRAAukJMAFgApBeVSyRBEiABEjAPQEmAEwA3IuUBpIACZAACaQnwASACUB6VbFEEiABEiAB9wSYADABcC9SGkgCJEACJJCegEYC8A0AxwX5p9H+wwDIXABj/HsUgEcCeAiA+wG4E4D10suEJZIACZAACeRGQKMDjDQRjkb7PZR5JYBzAXwdwIcBvBrAMwDcH8D6uYmY7SEBEiABEuhOQKOzYgKQ/rFCSj9dB+AHAD4EYF8AOwBYvbt0eAQJkAAJkEBkAik7lklZTAB8JwATP03/fwWAEwEcVD9KWCWyqGk7CZAACZDAcgLTnUCqv5kAxEsAmr4/D8BRAJ7AuwPLTyLuQQIkQAIRCTQDf4rPTADiJwDTOrgIwPsAPCCiwGkzCZAACZDAbALTgT7V30wA8koApnXxo/oxwcaz5cRvSYAESIAEohCYDu6p/mYCkG8CMNHInwAcU73qedcoQqedJEACJEACKwlMAnrK/5kA5J8ATOvllHqswEpl8RMJkAAJkIBrAtOBPNXfTADKSgAmupE5B3Z2rXYaRwIkQAIkcBOBSfBO+T8TgDITgImG5HVCmXCIGwmQAAmQgGMCk6Cd8v9UCcDWAPYB8A4AHwXwXgAHA3gogNUSMU3Zbpb118TnBgAfA3DbRH5iMSRAAiRAAokJaHRaQxOAXQGcgb92JrNs/DWAAwGsM5DHrLL53WL2XfjIlMSvA7DWQD/xcBIgARIggcQEugTztvv2TQBkjvrjl3T8TRvOAXCPAUya5fFzus5/mqW8PsjxAQOEykNJgARIIDWB6SCd6u8+CcCtAHynY+c/sfdyAA/rCWZSBv/X6finucpjAZldkKsV9hQrDyMBEiCBlASmA3Sqv7smAPI8/3M9O/+Jzb+rxgls2wPM5Hj+r58ATBjLXZudeviKh5AACZAACSQkMAnKKf/vmgDsP7Dzn9h+KoCui9hMjuX/4yUAwlpWJHwtgFUTaplFkQAJkAAJdCCg0fF1SQA2rEb6/yZRAiBtkcVrumwa7WeZ7ZOJLwPYtIvDuC8JkAAJkEAaAhqdVZcEYK+Enb+05d87YtFoP8tsnwAIK1l58MEd/cbdSYAESIAEBhLQ6Ky6JABdR/0vs/eqjq8GLiuPv3frzPvyugbAcwZqmYeTAAmQAAl0INA3YC86rksC8JPEdwDEri6vBS5qB38bp/Of5vwujgvocPZyVxIgARIYQGA6+Kb6u0sCIK/wpap3Us5jO/CYHMP/0/uhL1OZ9ZETB3UQMXclARIIQUAmrtsewN8BeCGAQwEcDuDN9b9XAtgTwA4AbjNGi/oG6UXHdUkALlNIAB7dAdyidvT9rUv7O5g6c9dbApA5FG4H4J4AJPkRAb2iXq73G5XQ5BXJvm2xOk4GB8rEUNxIgARIICqB1QE8DsA7q9h8GoBrO8biCwF8CMAzqqnwN9KAoBHgu3SAZ3cE0sbeu3cA1aa8rvt0aX8HUwftukWddb4dgCzfK8/cu7Zr7P1ldcFbDGo1DyYBEiCB8Qnct76ylynrU8XN6wGcAECmyk/2+nQq46bL6dIBph4EKHPPd1kfYNruVH93af/40ryxxg0APKmeme9XCUWaiuGknNMB3NoKEuslARIggZYE1gDwdAAyH80kfmn9/zMAzwcgdxgGbRoGdukAn50Y1mc70rBuf0dzVXaXyZNkhcUjAfw2sT9S8D2LSYCK31koCZDAcAJya14euZ5vEDt/AKDLI++btTZFgG6W0SUBkCvRSxKCe/zNWrj4i6btKT53af9i68b/VbJYsf+khD5JwVTGMnANgfH1wBpJgARmE5BHze+vVqWVV89TxLghZXym76DBIZXOO7ZrB/iiRAC/OttPC7+d14Yh33dt/0IDDX+U1yk/0GPgyhB2i479PIA1DXmwahIggbIJyLN3mW32iwBkcbNF8Wrs3+RRbucJ1TSM7NoBymJA/zkQpox036aHNj20v4fZox5yx3qsgIeBgx9LOQBmVIqsjARIICoBuVMtF6o/HdhPafQ302X+GcB+XSBPH5zq764JgNgrr7Od2ROuvErYd635VG2eLqdP+7v4zGrfLQH8m4PM901WAFgvCZBAUQS2rl/h+2PPvmm6Xxjzb1lordWmYVTfDlCe8R7XEbRkZF1e+2tC8dT+pm1ePz+gGngiz+Q12LUtcw+vcGgXCZBAeAIPqfsiuaJuG5O87feWNl7QMLpvAjCxV0Y1fnMJ+IsBHFDNnrT25KCe/3tsf8+mjHqYPAvbt/KBxkyObXwiA28kEeFGAiRAAikISF/yDwC+u6TvaROfvOxz8DIwGoYOTQAmNt+pekPgBQAOq57vf6Qa5fie+nWLHRM+B/bc/gkHz/+Lj2RAjAbHZWXKazfy3q3ojf/yZyAToOwEQCZZ2YpvhXgOC6Fsk0nS/inx22jLYtdYv8vkQX+7yBsahqRKABbZneq30tufgqPMIyADTzwMEtTwJ8u0SfDacP8lgBMBvA/A3gC2TSFollEEgQdWepF1R7pOz9tGl572+X01dmu7eR7VMJQJwDzaeX8vJ9TPje4GaOiYZfrt+Bf5Rl6H+td6/vR18z7l2LqOBGSek6c5GMO0SL8av50BQN62u9mmURkTgJthLuYLeZtD3tfX0BXLJNeuGpA3hD5YTWy1S8LHhsWczBk1VFbWe3n1jP+8gmOTrD54s63rCdVmfyYAN8Nc1BeSab6r4BOtzTnCfcZPZs6pH1VxqelywpHc+pZYJGvElH7OyauMMt5hxaYBhQnACsTFfpCJM2QQiobGWCa59tXAL+qFVDirZJ6hSd5QkinhZWyIt9n6+mo21XEys+uKLVXB0+UwAViBuOgPMko/90E209rn33ESk58MXUil6DPbX+PXB/A8AD/iRcfci66rq1ldN592nUbAYgIwTZh/7843BOaekBrnH8vsloTIK8YrgiJP2VAE5JXQdwD4Azv+VnHm0GnvagQLJgDThPm3EJAFNHgnoFvHpHFusszZPpBlsBe+L83T2B2BhwGQVfD4mHG2pued67JuzjoTb87bacj3TAAmdPn/NIFn8mRtlaEPOfd4bLdgOM1LnhfLgDGODZg+a339LQM49wRwFq/2B8WSJ07cOn0CpPqbCcCELv9vEpAJg1LpjOWQpYYGZJ2LjZvC5WdTAvKI5g0ZztYnV+Pyjr5MfS+TWmnoeVaZ8mrsX7ZZPw79jgnAhC7/n0VAntcN1RiPJ0NNDZwNQJbB5mZLQNb7kDEaOc0yKq/jyZ0mmThNZlGd3m5fT3cva91o6vuSycRAGpUwAZh2Kf9uEli9fkVHQ3ssUzdwlMT3AgD3aIqXn9UJSHx4KoCvK3eCY2v5Z/U8FBu2IHjrSnufUm7//cQODQhMAFp4uPBdROAyMYuG/lgmuabSwKVMAkaLVBITDgIgUzmn8p+Hcr4EQJ65y/wEXTbZ/1hFFs8VYzQAMQHo4uZy971PNT2nvJeqoUGWSa6pNCB3Avg4QC9O3bV6DfOozGbr+xOAoxMkjzIg9XtKMVIexaoEXyYAeidLbiUfoKTBVMGf5ejEiGhcZUwABwamiz5ydSuvXf5PZrP1SbL4SgAbpUP1l3UsNM4XmSmRCYACg0gJUEKd9ipKAoEIUUPgLJNcU2pAnknLanLc+hOQ2fr2rVZqlIQqpW+syzqtXn1SSx8/VOAlZao4IVIHqCGcSO3vfyqnO1IWqPi1khY1/MsydeJGBK5vSyf7okq6E4DDMputTyY2+xiAHUbw5OEK8VHGWjABUGDABKD7GbFzZs8AI3RmtLF7/JPJgjhjYPvzW5Zh/jSA6xTirJV+ZdbIN1bP+G/bHsPgPWWNg9TtlQGuyQsVIyN1gKmhRmv/YGUmLGCnDCf60NAXy9SJW225SgewWULd51aUzNYnI8y/o9S/tPVT6v2+D2Dv6Wl0R3TccxRYyh0MJgAKDCIlQCNquFVVMuPXRzllsMp5mTogllyeaJTbSgJy7h6S2eM8WWfgPwA8csakPStbr/vpQIV+incAFKBKUGQCMPxk2LbyzWsBfLW+K5DTLcSSO85c2i6PAmQxGm7A/QF8OLPZ+i6rZ+vbxomDP67QV8ly2CpXGpE6QI2AFKn9TvRNM0hgKYH1AGyCGzucPeoALe9IS2escR4vK1PWnS914SCZrU/i3ClG7Jf5pu/vMjnZi6vlhdvM1rdUsIl2EFuuUOAsb7WonDiROsC+Qll0XKT2J9IoiyEBMwJbVzW/rno+K+9gLzovNX77v2attqlYZuuT29FjLlyj4bdmmV+uxizs1mO2vjG88HolXctUwyonTKQOsCmEFJ8jtX8MAbMOEhiDgAw+ez4A7YVUpmPEzwuZG+AuAI7M7E0dma3vA9VbCvccQ5w965D5+sXOac2l+vtVYlOqwqbLidQBTtud6u9I7e+pSx5GAm4J3LIapf/PIz4a2MstiWGGyUp1uwL47xFZporBi8qRO0UHB5jZURITzWT2MSKPRaD6/hapA+zbxkXHRWr/sBDBo0nAL4EnV6uv/V4pxk2f//9rPEI8tQdktr59Mpyt71sAnhlg3IbMjiqPlq5S1K6Mm5HHOUwAFBgwAUgdklgeCfQjcHcA5yuc49MJgPwtE1lF32TBo7ePlDQ1+Wl9/jMAGUH/oCDOkQXSTh1Br2dNeGiAj9QBlt7+iQ74PwnkSkCmodUeICjPkqNuMgGXDAjL6VVbmazpTdUz/tsFccotqivyd4/og1dMuJTeAZbe/okO+D8J5EzgHsrz0P/BaIa4vj6TAZMyu9yZI1xtasTYeWX+AIBMm7tuXzAGx8ljiQtH9IPc/t9q0s55IId8zzsAE7r8nwRIwAuB3ZWDbIS4J1MYy2tlmoPLhvQdfY6V2fr+E8Cjgo3F+BsA8vphnzYPOUYeMdy0DSlo3rERToQJgHltGPJ9pPZPOPB/EiiBwFGKAfcYxwDldbJjM5ytT26by6yhkTa5OyGPJ65R1OKi/usp07AW7dj3t0gdYN82LjouUvuntcC/SSB3ArdSnKv+XGfwZDT5EwCcaNTRLIqRQ36TuRcOmoxid8Z8mTnij18Y+uOHzcmOhjhi3rGROsB5bRjyfaT2LxMsfyeB3Ai8QDEA3/Rs1RCaJDkvq57xS0IyJI55O/YrAJ7U7MAMOXepWgainuDAH89oGq3h5EgdYOntb+qBn0kgdwJrKw66+gdDePJMWWbr05g3XiNOtilTZsH7IIB7GXIdUrUMtpRJhzTf6W/DUfb5xqzkqe3BXfZjAjBEMjyWBEhAm4DW/Orv0ja8Ub7M1idL1crVpdWiSF36hrb7yiDFNwPYotHeSB93qRZMklvubdusud/VAO46C55GpUwAZpHmdyRAAl4IyDKvGh3mF0ZqoNzF2BOAvPamEcOtyvx2/RqftC/qtnk94NKK4ax6ZczEzG3WzkO/YwIwEzW/JAEScERAo/PUHgi4JYC3ZThb3ycAPNiRNvqYIksky1LCf3SWlP0PALFt5ja0s591PBOAmaj5JQmQgCMC8grZrPg15Dt5J11jEprJa3wyte0Q+zwdK5MnySMTSWqib/cHIGsNeOIrtsg6FbI41txNw2AmAHNx8wcSIAEnBOQWukb8kzn1U2xrVs+QJZaOMTe8Bod5Zf6kuoOxX3UnY70UkIzLkDcuJImRxG9ee62+l+mQ5VHXwk3DOCYAC5HzRxIgAQcEHqgUtIeuL79J/Z77GIsYacT/WWXKeAuZj0Deg5eBi9E3aYMkkJcoaWgWwy7fXQTg3m0gdym07b5MANqQ5z4kQAKWBGSwVtuY1mW/h/Rs1H0B/CsAGbHdpT7P+14O4L0AtuvJxONhY63Y19evcodF5h1otfWtZNFxTABaoedOJEAChgTkFvSiONb3t107tGk1ALJGwdeUbOnbhqHHyWx9LwEgq9zlso29Yl8fH5wCQO4gtd76VLLsGCYArfFzRxIgASMCMjJ6WSzr8/sTW7RHBma9NMPZ+k4C8GQAktjktI29Yl9X3cng0Ff34d61ojb7MwHISfpsCwnkSUCu6NrEs677bL8A152rK7QjMputTx5Z/EvbZ84L2Hj8yWrFvi6a+zEAGc/Sa+tSUdt9mQD0cgUPIgESGJGAjNZvG9O67Hf7RhtkwNhjAHxeafKhLral3FfWsJerzk63nBtsvH60XrGvjZ9keuFXVSsLynTDvbc2FXXdhwlAb3fwQBIggZEIyBS6XWPbsv3ldbA1avtzna3vzAxm61skMesV+5ZpTH7/IgC5mzR4a1NZ132YAAx2CwsgARJQJrCvQgLw63pim7cCuFSh/K6xONX+8oz5uOpVvh2VfWJZvJcV+xb5TGaalBURk22LKuv7GxOAZO5hQSRAAkoEZPrZvjFu3nHXVqu/5TRbnyQxb6lW5LuDkg88FOtpxb5FunqTxuRJ8yoc8j0TAA+ypg0kQALzCMgoda+TuAyJvamO/RGA/6vR4cxziNH38hjobIVEMJUfpJwvA7iLFp+Uhk7KYgKg5S2WSwIkkILAo5wH/UksHfP/3GbrW6QTjyv2NX0ts/nJbIOqMyc2K03xmQnAIunxNxIgAWsCH2YCcNPjD5mt732pBpVZO3ZJ/V5X7Jvud68DIAtVjTKJ0nTFqf5mArBEhfyZBEjAjIC8pncNEwBcUHngdVVnc2szT4xbsdcV+6b73W8Peae/D87pylP9zQSgjyd4DAmQwBgEjiq88/8qgL/rM2vcGM5RqGMjAMc4n4Phd/WrlasqtH9hkak6/elymAAsRM4fSYAEjAjcr5o8RW6xTserEv6WOx7yGt8ORtwtqvW+Yp/oTsZdHGs5mZKG+JkAWMiddZIACSwiIK97ySQ2GjHPaw4CkVgAABTOSURBVJkykOy1ADZdBCbD37yv2Cd6+a6HeRU0hMsEIMMzik0igeAEZKCbRrzzWOYZAJ4NYM3gPutqfoQV+y4DsD8AGZBovmmIlwmAuVtpAAmQwBSB5xfQ+cs0xCcAkHfbS9xkCt/znPtZ/ONqUiUmAOmvCiIlQCUGCra5LAJ7VYvWSOeoEes8lCmz9cnUw1uW5dabWhthxT6ZbEjmnnC3aQg4UgdYevvdCZIGkUBCAgc6H/09JP78LwC5s7FeQl6RiipmxT5NpwwR4LxjmQBoeoxlkwAJLCOwQTWxzccyvOovaba+RT6OsGKf3O6XBYZcb/M68SHfMwFw7XIaRwJZE5DOQVZNGxLDvB37p/p1sbtl7bnljbsdgE869+359RS+y1vjYA8NoTMBcOBYmkAChRGQZ6xfc945dI23ksi8DMAtC/Nls7nyCuerAFzl2L8y14LKin1NGCk/dxVkm/2ZAKT0EMsiARKYR0CuiF8JQFavaxObouwjiczuBc3WN8+/8n3xK/YtgjP0N40TggnAUK/weE0CMmjqHgB2BSBa5b8YDJ4D4IXVoLe3AfgPADLJjUb8sirz6uqZ8b9WbbuvpvgDlb0FgI8797FocA/tFfs0faYhdiYAmh5j2X0J7FZ3HJ5vI2qcjyzTd6JwcSVoWZSntNn65p3HXLFvHhmF7zWCAxMABUexyN4Etq1uI57i/EpC4zxkmb47fln5TeYokOfb3G4k8GAAZzk/V0/L6S6NRpBgAsDT2QuBhwOQiVI0dM4yybWrBmQhouMBPNTLCeLEDq7YZ+SIrgJusz8TACNnstoVBO5azbn9R3b+TH4caEB0+C4Ad1yhUH7gin3GGmjToXfdhwmAsVNZPdap3sX9uYPA3/Xc4f553VX4MYAXFDxb36JQxBX7FtEZ6TeNgMMEYCTnsZq5BF7Ozp9X/oYakDEnEgdXm6vQcn+QFfvkbog8DtHof1KUeUXlHhmYmf1qiilgNctgAlDuye2h5RJ0L3EcXJrnCz/77Qi6+EY6jSMB3MXDSeDUBnll7kLn56a8enhbp/ySm9VF4G33ZQKQ3E0ssAOBnZ0HmLbnEfeLkRhIhyZXi7fpoNHSdpU3cf7b+Xn5UwCPLc0xGkGGCUBpKvLV3oOdBxqNc45ljp8snAzgKQDkvXVuswlwxb7ZXNx8qxE4mAC4cW+RhhzBBMDts1WNeDNmmTLf+3HV1eyDijyzujWaK/Z142Wyt8bJwwTAxJWstCbwYSYATAASa0Bm63s9gM14li0lIEvgylK4Gn1LqjJlkSWZGbT4LRXQ6XKYABQvK1MAb3cefKbPFf7tu6P4TjVo7XnAX14rNRV1gMrXALAfgMsdn3/X1m8grB+A5ygmagQgJgCjuI6VzCGwr+MApHG+scy0SYS8nvYpADKYlFs7Alyxrx0nd3tpBA8mAO7cXJRBMtuahq5ZZt5cOVtf9zCxOYBjnZ9vsmLfnpFX7OvulvZHaAQ1JgDt+XNPHQKnOw9KGucdy+yXoJwNYB8AvC3c/lzkin3tWbneUyNoMAFw7fIijHsMEwDeBVmiAc7W1y8U3B/At5aw1ehXupQpKy0+sF/zyjqqC9S2+zIBKEtDXlsrr2u11Sz3K4OVDFDjbH39zliu2NePm+ujNAIfEwDXLi/GuPUAnMkkgEkQgO/Xt/k3LEb96Rq6KoC9AfzO8bl0A4BjAEiSwq0DASYA6a98IiVAHaQSctdbAviC48Clcf6xzBvP6fOrOd2PBvDQkMr1YTRX7PPhBzUrNIJFpA6w9ParCctRwbI40Au5QFD2dwKuAiDT874SwL056nvQGSgr9r3b+Yp9lwHYn1MxD/KzSlBgAjDMJzxah8AGAJ4F4JMAfuR8whKNxDR6mfKanszgJpPzfLlade8TlUxkEZ7dAWzHpXeTnTRRVuzbIlmLCy5IIygwAShYUGw6CZBASAJcsS+k24YZzQSAYwCGKYhHkwAJRCawTmW83Em52vFYGXm8IzauHRm0R9uZADAB8KhL2kQCJKBPgCv26TN2XQMTACYArgVK40iABJITuF09FkYj/qcqU97ikCl8uSkSSOWs6XI4BkDRYSyaBEiABHoS4Ip9PcHleth0x53qbyYAuaqF7SIBEohKYBcAP3T8nF/6n69WdybuFhVwRLtTdfrT5TABiKgE2kwCJJAjAa7Yl6NXE7VpuuNO9TcTgETOYTEkQAIk0JOArNi3XzVZjsyfkCq2py7n+no54dv0bCMPG0ggtUOlPCYAA53Cw0mABEhgAAGu2DcAXkmHMgFInx1HSoBK0jrbSgK5E7gVgHcBkCtrjdieosxL6zsTMkU3N2MCKRzaLCNSB9i0PcXnSO03lh+rJwESSEBglfqVuUscd/yyYt+xADZJ0F4WkYhAig6vWUakDrBpe4rPkdqfSEYshgRIwIjAvQB8w3HHLzH1uwB2NOLDahcQSNHhNcuI1AE2bU/xOVL7F0iDP5EACTgmICv2ye3+6xx3/ldU/GQK3zUdcyzatBQdXrOMSB1g0/YUnyO1v2jxs/EkEJSATOF7nuOOX+LoCQDuEJRvMWan6PCaZUTqAJu2p/gcqf3FCJ0NJYEMCHDFvgyc6KkJKTq8ZhmROsCm7Sk+R2q/Jy3SFhIggdkEuGLfbC78diCBFB1es4xIHWDT9hSfI7V/oHx4OAmQgDIBrtinDLjk4lN0eM0yInWATdtTfI7U/pK1z7aTgGcCXLHPs3cysS1Fh9csI1IH2LQ9xedI7c9ExmwGCWRDgCv2ZeNK/w1J0eE1y4jUATZtT/E5Uvv9K5QWkkA5BLhiXzm+dtHSFB1es4xIHWDT9hSfI7XfhQhpBAkUToAr9hUuAKvmp+jwmmVE6gCbtqf4HKn9VrpjvSRAAgBX7KMKTAmk6PCaZUTqAJu2p/gcqf2m4mPlJFAwAa7YV7DzvTQ9RYfXLCNSB9i0PcXnSO33okPaQQKlEOCKfaV4OkA7U3R4zTIidYBN21N8jtT+ABKliSSQBQGu2JeFG/NqRIoOr1lGpA6waXuKz5Han5ea2RoS8EmAK/b59EvxVqXo8JplROoAm7an+Byp/cWfAARAAooEuGKfIlwWPZxAig6vWUakDrBpe4rPkdo/XEEsgQRIYBYBrtg3iwq/c0UgRYfXLCNSB9i0PcXnSO13JUYaQwIZEOCKfRk4sZQmpOjwmmVE6gCbtqf4HKn9peic7SQBbQJcsU+bMMtPTiBFh9csI1IH2LQ9xedI7U8uKBZIAgUS4Ip9BTo9hyan6PCaZUTqAJu2p/gcqf05aJhtIAErAlyxz4o8601CIEWH1ywjUgfYtD3F50jtTyIiFkIChRHgin2FOTzX5qbo8JplROoAm7an+Byp/bnqmu0iAS0CXLFPiyzLHZ1Aig6vWUakDrBpe4rPkdo/uuBYIQkEJcAV+4I6jmbPJ5Ciw2uWEakDbNqe4nOk9s9XBn8hARIQAlyxjzrIlkCKDq9ZRqQOsGl7is+R2p+tsNkwEkhAgCv2JYDIIvwSSNHhNcuI1AE2bU/xOVL7/SqTlpGAHQGu2GfHnjWPSCBFh9csI1IH2LQ9xedI7R9RaqyKBNwT4Ip97l1EA1MSSNHhNcuI1AE2bU/xOVL7U2qJZZFAZAJcsS+y92h7LwIpOrxmGZE6wKbtKT5Han8v0fAgEsiIAFfsy8iZbEo3Aik6vGYZkTrApu0pPkdqfze1cG8SyIsAV+zLy59sTUcCKTq8ZhmROsCm7Sk+R2p/R7lwdxLIggBX7MvCjWzEUAIpOrxmGZE6wKbtKT5Hav9Q/fB4EohEINKKfWtFAktbYxJI0eE1y4jUATZtT/E5UvtjqpZWk0B3AlyxrzszHpE5gRQdXrOMSB1g0/YUnyO1P3N5s3kkAK7YRxGQwBwCKTq8ZhmROsCm7Sk+R2r/HFnwaxIIT4Ar9oV3IRugTSBFh9csI1IH2LQ9xedI7dfWF8snAQsCXLHPgjrrDEcgRYfXLCNSB9i0PcXnSO0PJ1gaTAILCHDFvgVw+BMJNAmk6PCaZUTqAJu2p/gcqf1NPfAzCUQkwBX7InqNNpsTSNHhNcuI1AE2bU/xOVL7zQVIA0hgIAGu2DcQIA8vl0CKDq9ZRqQOsGl7is+R2l+u8tny6AS4Yl90D9J+cwIpOrxmGZE6wKbtKT5/EsCzAMjiImuae5gGkEBeBFYFsDeA3wFIcb5qlHEDgGMAbJQXerYmNwIa4i89AZhm+mcA5wA4oRLO6wAIm7sBkCDGjQRIoBuBBwL4huOOX8797wLYsVuzuDcJ2BCY7qxS/c0EYPmVyWUAzgBwLID9ADwSwCY2EmCtJOCewG3rc0WurFPFqdTlXFFRlCSfd/3cy4kGTgikPgmkPCYA/YPUpVUycAqAdwF4HoCHAJD5y7mRQIkERPsHAbjccccvMU/u8N2+RAexzbEJMAHo31lrsJtV5rUAfgDg4wBeAUDmNL9jbNnRehJYSEBe63sugF857/jPru/eLWwMfyQBrwRmdThDv+MdgHGSCj5G8HpW0a6+BFap7yD+2HnHf1XVQLndzxX7+nqax7kgMLSzn3U8E4BxEoBZ7OU7PkZwcWrRiI4EZBzMt513/HJ+ye3+O3VsG3cnAZcE5nUiQ75nAmCbAMzyHR8juDz9ijdKrvifCOCbATr+cwHsVrzHCCArArM6i6HfMQHwlwDM8+kf+TZCVudzlMbISPk967Et87Tp5XtJnmVQ7vpR4NJOEmhLQOMkYwIQJwGY538+Rmh7BnG/LgSkE5XXXr0P7pucFyfV83Z0aSP3JYEwBCZCT/k/E4D4CcAsPUweI3yMbyOEOb+9GLodgHcA+EOAW/2i/QsB7OEFHu0gAS0CswL90O+YAOSZAMzTBR8jaJ2dsctdrX5FTgbNeZ7AZ1rX19cTDt0mNnpaTwLtCEyLP9XfTADKSgDm6UZu836umsjoLVwbod3JmMledwDw+mq+/guCXO1P9HsqgPtk4gM2gwRaEZiIP+X/TACYAMzTE9dGaHVahtvplvWgPrnavy5Yxy/jXWRcgtyx4EYCRRGYF6iHfM8EgAlAV/3wMUK8sCOT4MislLKexZXBOn3RpzyWENu5Bkc87dHiRAS6Buo2+zMBYALQRidt9uFjhEQneqJibgXgmQA+AUCStjY+9LjPWQAenIgJiyGBsAQ0Tk4mAHEDo4YeUpfJxwjjhpst64Wp5Pb+NYE7fdEhV+wbVzuszTmB1MFZymMCwARAQ1fLyuRjhDTBZoN69P6b60mioozgX6YPSWC4Yl8ajbCUTAgsO2n6/M4EgAlAH91oHcPHCIuD1cYA/raa6e7t1bS8ZwKQV+G0fGFRLlfsW+x//lowAY0TkglAXgFUQyPWZZY6qdE6AHasnt/vD0AmdDons85+WleyWuZBXLGv4N6NTV9KYPqESfU3EwAmAKm0NHY58hjh6wCOAvASAI8DsHXAV8Rkrv27A3hqFQFk2drjAHwfgIyfGJvp2PXJHYwPAthsafTjDiRQOAGNk5MJQP5BVkM3nsuUwW8/BPCp+la5vDf+lHokuTxXXmPkOLJ61cnJhDsPqSdZemWdtHwewI8L6ehn6UWSt/uP7AtWRwJhCcw6iYZ+d1g9EFASAe//hrZ11vEvrpcNPbh+XepHBQfkWXxy/E6uOmX++O8BOLleM/4jAN5bJQeH1reiD6hH0z+v/v+5U+fH39ffvajeVzp0GYQnq9BJOTKjoiyZ+9NA8+mP6efzADyjmoFQlhfmRgIk0JLAmCdpKXXNugMiV4h3qwO+3JKVEcny/DWXEdal+Jbt9HV367d1wrRuy3jH3UiABKYIMKClD2izEoAp5Cv+vEV9G1euCuVq70QAEtToFzKgBuZr4PL6DomcP9xIgAR6EmCQmR9k+rLpkgDMc9sW9bvY8qxZpis9A8DVTAyYGBWuAZlyWBJlTt87L3LwexLoQKBvJ8fj5icOKRKAWS6UuddltbJnA3grgC8AOL/wDoE6nK/DnNjIDH7vBLDprBOD35EACfQjkFOQ8NIWrQRgnof5GKGMTtCLvse045JK9DJm5jbzxM/vSYAE+hMY82Qupa6xE4B53udjBCYGUc+5n9dL9HJw37yzm9+TQAICUQOEZ7u9JACz5MHHCEwKPJ87p9eTF602S7z8jgRIIC0Bz8Egqm2eE4B56uFjBCYGVuebDG6VmQofOU+c/J4ESECHgNVJn3O9EROAeeriYwQmBlrn6k/qd/j5fH/e2cfvSUCZgNbJXXK5OSUAs+THxwhMCvqe33+qr/Yfzln7Zp1a/I4ExiUgc5z3PZl53Gx2u43rQje13RrALtVERvvW89KfWi2oIyuyUSdlM5Bpkr8MQKY7vqUbtdIQEiAB/JIBOnkH9QDqagUBPkYoMwGQxZPkFb47rVADP5AACbghcBITgKQJgMztv7Eb7/o1hI8R8ksKRPsyY+Vr6nUv/KqPlpEACfyFwEFMAJImAN+irgYR4NsIsRKD66rR+6fU7+zLssjcSIAEAhHYBoCcxHxOm4bBSwP5PoqpssSr3EaWsRWTJZbl9vKfqVuT81amn5b1KZ5WTc/LxXiinEW0kwTmEPgAA2mSQHoBgPXmMObX6QlwieU0Seuy5P839fLVcrfwfhy9n17ILJEELAlsDuBCJgGDkgB5/rm7pRNZ900E+DbCsMTgFwA+DuDFAO4NYNWbyPIPEiCBLAlsD+AqJgG9k4BDslRFPo2aPEZ4Ih8jrND4pfWqkqLfx3OZ3XwEz5aQQFcCkgTwTkC3qycZP3FAV9Dc3w2B6bcR3gjg+OpOzvcByPS0y26NR/r9jwC+CeAYAC8D8Lh6XIUkRtxIgARI4C8ENgNwNAcGtgr+MtHNjtRNlgRkMZqtqk5zVwD7V692vg/Af9SvuV1Uveomj3w8JQAyIPJcACfXA/QOBfCPAB4N4A5ZeoiNIgESUCMgwe/AegYvmSyIMwYCFwM4s5rN7PB6xjtePanJz33BMgBROlZJAGXq530AvBLAW+tZEGVxm/+pr7p/DOAcALLErdxyn/z7/VQScUX9vWhM9v1ZnWzIe/Uyi94nARwJ4J/qhGSv+pb9g6qrenn9jqvnuZcMDSQBXwT+P4I3JbaohINdAAAAAElFTkSuQmCC;" parent="1" vertex="1">
          <mxGeometry x="-858.06" y="-395.5" width="50" height="50" as="geometry" />
        </mxCell>
        <mxCell id="LXhwEYFynrwZ-pUap6Co-56" style="edgeStyle=orthogonalEdgeStyle;rounded=0;orthogonalLoop=1;jettySize=auto;html=1;startArrow=classic;startFill=1;" parent="1" source="LXhwEYFynrwZ-pUap6Co-54" edge="1">
          <mxGeometry relative="1" as="geometry">
            <mxPoint x="-1370" y="-754.22" as="targetPoint" />
          </mxGeometry>
        </mxCell>
        <mxCell id="LXhwEYFynrwZ-pUap6Co-54" value="On Premise AD" style="shape=cylinder3;whiteSpace=wrap;html=1;boundedLbl=1;backgroundOutline=1;size=15;fillColor=#66B2FF;fontColor=#ffffff;strokeColor=#E6E6E6;" parent="1" vertex="1">
          <mxGeometry x="-1568.38" y="-794.22" width="88.38" height="80" as="geometry" />
        </mxCell>
        <mxCell id="tIEBANXEXaCzJwbuq1Jv-1" style="edgeStyle=orthogonalEdgeStyle;rounded=1;orthogonalLoop=1;jettySize=auto;html=1;dashed=1;curved=0;" parent="1" source="LXhwEYFynrwZ-pUap6Co-55" target="LXhwEYFynrwZ-pUap6Co-66" edge="1">
          <mxGeometry relative="1" as="geometry">
            <Array as="points">
              <mxPoint x="-1340" y="-804.22" />
            </Array>
          </mxGeometry>
        </mxCell>
        <mxCell id="LXhwEYFynrwZ-pUap6Co-55" value="Azure Active&amp;nbsp;&lt;div&gt;Directory&lt;/div&gt;&lt;div&gt;&lt;br&gt;&lt;/div&gt;" style="verticalLabelPosition=bottom;html=1;verticalAlign=top;align=center;strokeColor=none;fillColor=#00BEF2;shape=mxgraph.azure.azure_instance;shadow=1;" parent="1" vertex="1">
          <mxGeometry x="-1360" y="-779.22" width="50" height="50" as="geometry" />
        </mxCell>
        <mxCell id="LXhwEYFynrwZ-pUap6Co-57" value="HMRC" style="shape=image;html=1;verticalAlign=top;verticalLabelPosition=bottom;labelBackgroundColor=#ffffff;imageAspect=0;aspect=fixed;image=https://cdn4.iconfinder.com/data/icons/48-bubbles/48/04.Bank-128.png" parent="1" vertex="1">
          <mxGeometry x="-1830.38" y="-394.22" width="99" height="99" as="geometry" />
        </mxCell>
        <mxCell id="LXhwEYFynrwZ-pUap6Co-64" value="" style="edgeStyle=orthogonalEdgeStyle;rounded=0;orthogonalLoop=1;jettySize=auto;html=1;entryX=0;entryY=0.25;entryDx=0;entryDy=0;strokeColor=#007FFF;" parent="1" source="LXhwEYFynrwZ-pUap6Co-10" target="lF2a-6-bPxqarsUywT9y-5" edge="1">
          <mxGeometry relative="1" as="geometry">
            <mxPoint x="-1525" y="-394.22" as="sourcePoint" />
            <mxPoint x="-1529" y="-164.22" as="targetPoint" />
            <Array as="points">
              <mxPoint x="-1530" y="-370" />
              <mxPoint x="-1320" y="-370" />
            </Array>
          </mxGeometry>
        </mxCell>
        <mxCell id="LXhwEYFynrwZ-pUap6Co-65" value="&lt;span style=&quot;background-color: rgb(230, 255, 204);&quot;&gt;Payment File&lt;/span&gt;" style="edgeLabel;html=1;align=center;verticalAlign=middle;resizable=0;points=[];" parent="LXhwEYFynrwZ-pUap6Co-64" vertex="1" connectable="0">
          <mxGeometry x="-0.3255" y="1" relative="1" as="geometry">
            <mxPoint x="-16" y="15" as="offset" />
          </mxGeometry>
        </mxCell>
        <mxCell id="LXhwEYFynrwZ-pUap6Co-66" value="Enterprise Apps" style="shape=cylinder3;whiteSpace=wrap;html=1;boundedLbl=1;backgroundOutline=1;size=15;fillColor=#b1ddf0;strokeColor=#10739e;" parent="1" vertex="1">
          <mxGeometry x="-1260" y="-834.22" width="80" height="60" as="geometry" />
        </mxCell>
        <mxCell id="LXhwEYFynrwZ-pUap6Co-71" value="MaxiMo" style="shape=cylinder3;whiteSpace=wrap;html=1;boundedLbl=1;backgroundOutline=1;size=15;fillColor=#e1d5e7;strokeColor=#9673a6;" parent="1" vertex="1">
          <mxGeometry x="-1000" y="-640" width="80" height="80" as="geometry" />
        </mxCell>
        <mxCell id="INALur6GVUGKPZvebrQy-1" value="" style="edgeStyle=orthogonalEdgeStyle;rounded=1;orthogonalLoop=1;jettySize=auto;html=1;entryX=0.855;entryY=0;entryDx=0;entryDy=4.35;entryPerimeter=0;dashed=1;curved=0;" parent="1" target="LXhwEYFynrwZ-pUap6Co-10" edge="1">
          <mxGeometry relative="1" as="geometry">
            <Array as="points">
              <mxPoint x="-1170" y="-580" />
              <mxPoint x="-1468" y="-580" />
            </Array>
            <mxPoint x="-1040" y="-580" as="sourcePoint" />
          </mxGeometry>
        </mxCell>
        <mxCell id="INALur6GVUGKPZvebrQy-2" value="Time Sheets/Time Blocks&lt;div&gt;Work schedule Calendar&lt;/div&gt;" style="edgeLabel;html=1;align=center;verticalAlign=middle;resizable=0;points=[];" parent="INALur6GVUGKPZvebrQy-1" vertex="1" connectable="0">
          <mxGeometry x="-0.115" y="1" relative="1" as="geometry">
            <mxPoint x="-41" as="offset" />
          </mxGeometry>
        </mxCell>
        <mxCell id="LXhwEYFynrwZ-pUap6Co-72" value="Genesys&lt;div&gt;Call Centre Only&lt;/div&gt;" style="shape=cylinder3;whiteSpace=wrap;html=1;boundedLbl=1;backgroundOutline=1;size=15;fillColor=#e1d5e7;strokeColor=#9673a6;" parent="1" vertex="1">
          <mxGeometry x="-1038.06" y="-627" width="80" height="80" as="geometry" />
        </mxCell>
        <mxCell id="LXhwEYFynrwZ-pUap6Co-74" value="TIme Entry" style="text;html=1;align=center;verticalAlign=middle;whiteSpace=wrap;rounded=0;fillColor=#e1d5e7;strokeColor=#9673a6;" parent="1" vertex="1">
          <mxGeometry x="-1053" y="-493" width="233" height="30" as="geometry" />
        </mxCell>
        <mxCell id="LXhwEYFynrwZ-pUap6Co-75" value="Operational Activities" style="text;html=1;align=center;verticalAlign=middle;whiteSpace=wrap;rounded=0;" parent="1" vertex="1">
          <mxGeometry x="-990" y="-523" width="140" height="30" as="geometry" />
        </mxCell>
        <mxCell id="LXhwEYFynrwZ-pUap6Co-76" value="Overtime recording" style="text;html=1;align=center;verticalAlign=middle;whiteSpace=wrap;rounded=0;" parent="1" vertex="1">
          <mxGeometry x="-1070" y="-560" width="140" height="30" as="geometry" />
        </mxCell>
        <mxCell id="LXhwEYFynrwZ-pUap6Co-78" value="Absence &amp;amp; Workshifts" style="text;html=1;align=center;verticalAlign=middle;whiteSpace=wrap;rounded=0;" parent="1" vertex="1">
          <mxGeometry x="-1030" y="-680" width="140" height="30" as="geometry" />
        </mxCell>
        <mxCell id="LXhwEYFynrwZ-pUap6Co-80" value="" style="endArrow=classic;html=1;rounded=0;dashed=1;strokeColor=#FF0000;" parent="1" edge="1">
          <mxGeometry width="50" height="50" relative="1" as="geometry">
            <mxPoint x="-2180" y="-774.22" as="sourcePoint" />
            <mxPoint x="-1885" y="-774.22" as="targetPoint" />
          </mxGeometry>
        </mxCell>
        <mxCell id="LXhwEYFynrwZ-pUap6Co-81" value="WD INTEGRATION NOT CONFIRMED" style="edgeLabel;html=1;align=center;verticalAlign=middle;resizable=0;points=[];" parent="LXhwEYFynrwZ-pUap6Co-80" vertex="1" connectable="0">
          <mxGeometry x="-0.0805" y="5" relative="1" as="geometry">
            <mxPoint x="6" y="15" as="offset" />
          </mxGeometry>
        </mxCell>
        <mxCell id="LXhwEYFynrwZ-pUap6Co-85" style="edgeStyle=orthogonalEdgeStyle;rounded=1;orthogonalLoop=1;jettySize=auto;html=1;entryX=0.5;entryY=1;entryDx=0;entryDy=0;curved=0;strokeColor=#007FFF;align=center;verticalAlign=middle;fontFamily=Helvetica;fontSize=11;fontColor=default;labelBackgroundColor=default;endArrow=classic;startArrow=classic;startFill=1;exitX=0;exitY=0;exitDx=0;exitDy=42.5;exitPerimeter=0;" parent="1" source="LXhwEYFynrwZ-pUap6Co-10" edge="1">
          <mxGeometry relative="1" as="geometry">
            <mxPoint x="-1600" y="-477.22" as="sourcePoint" />
            <mxPoint x="-1690.5" y="-740.22" as="targetPoint" />
            <Array as="points">
              <mxPoint x="-1690" y="-491.22" />
            </Array>
          </mxGeometry>
        </mxCell>
        <mxCell id="LXhwEYFynrwZ-pUap6Co-86" value="Interview&lt;div&gt;Link&lt;/div&gt;" style="edgeLabel;html=1;align=center;verticalAlign=middle;resizable=0;points=[];" parent="LXhwEYFynrwZ-pUap6Co-85" vertex="1" connectable="0">
          <mxGeometry x="0.5126" relative="1" as="geometry">
            <mxPoint y="4" as="offset" />
          </mxGeometry>
        </mxCell>
        <mxCell id="tIEBANXEXaCzJwbuq1Jv-2" style="edgeStyle=orthogonalEdgeStyle;rounded=1;orthogonalLoop=1;jettySize=auto;html=1;entryX=0;entryY=0;entryDx=0;entryDy=15;entryPerimeter=0;dashed=1;curved=0;" parent="1" source="LXhwEYFynrwZ-pUap6Co-54" target="LXhwEYFynrwZ-pUap6Co-66" edge="1">
          <mxGeometry relative="1" as="geometry">
            <Array as="points">
              <mxPoint x="-1530" y="-819.22" />
            </Array>
          </mxGeometry>
        </mxCell>
        <mxCell id="tIEBANXEXaCzJwbuq1Jv-3" value="Enterprise Apps" style="shape=cylinder3;whiteSpace=wrap;html=1;boundedLbl=1;backgroundOutline=1;size=15;fillColor=#b1ddf0;strokeColor=#10739e;" parent="1" vertex="1">
          <mxGeometry x="-1250" y="-824.22" width="80" height="60" as="geometry" />
        </mxCell>
        <mxCell id="IddoA99KZuMBQ-tLbZDF-2" style="edgeStyle=orthogonalEdgeStyle;rounded=0;orthogonalLoop=1;jettySize=auto;html=1;dashed=1;" parent="1" source="tIEBANXEXaCzJwbuq1Jv-4" edge="1">
          <mxGeometry relative="1" as="geometry">
            <mxPoint x="-1030" y="-784.22" as="targetPoint" />
          </mxGeometry>
        </mxCell>
        <mxCell id="tIEBANXEXaCzJwbuq1Jv-4" value="Enterprise Apps" style="shape=cylinder3;whiteSpace=wrap;html=1;boundedLbl=1;backgroundOutline=1;size=15;fillColor=#b1ddf0;strokeColor=#10739e;" parent="1" vertex="1">
          <mxGeometry x="-1240" y="-814.22" width="80" height="60" as="geometry" />
        </mxCell>
        <mxCell id="IddoA99KZuMBQ-tLbZDF-1" value="Cornerstone&lt;div&gt;Ondemand&lt;/div&gt;" style="shape=cylinder3;whiteSpace=wrap;html=1;boundedLbl=1;backgroundOutline=1;size=15;fillColor=#fff2cc;strokeColor=#d6b656;" parent="1" vertex="1">
          <mxGeometry x="-1030" y="-824.33" width="110" height="80" as="geometry" />
        </mxCell>
        <mxCell id="IddoA99KZuMBQ-tLbZDF-5" value="" style="image;html=1;image=img/lib/atlassian/Jira_Logo.svg;" parent="1" vertex="1">
          <mxGeometry x="-1784" y="-794.22" width="41" height="40" as="geometry" />
        </mxCell>
        <mxCell id="IddoA99KZuMBQ-tLbZDF-9" value="&lt;b&gt;JIRA&lt;/b&gt;" style="text;html=1;align=center;verticalAlign=middle;whiteSpace=wrap;rounded=0;" parent="1" vertex="1">
          <mxGeometry x="-1782.38" y="-808.22" width="51" height="10" as="geometry" />
        </mxCell>
        <mxCell id="IddoA99KZuMBQ-tLbZDF-10" value="&lt;b&gt;GOOGLE&lt;/b&gt;&lt;div&gt;&lt;b&gt;MEET&lt;/b&gt;&lt;/div&gt;" style="text;html=1;align=center;verticalAlign=middle;whiteSpace=wrap;rounded=0;" parent="1" vertex="1">
          <mxGeometry x="-1716" y="-804.22" width="51" height="10" as="geometry" />
        </mxCell>
        <mxCell id="IddoA99KZuMBQ-tLbZDF-11" value="&lt;b&gt;GMAIL&lt;/b&gt;" style="text;html=1;align=center;verticalAlign=middle;whiteSpace=wrap;rounded=0;" parent="1" vertex="1">
          <mxGeometry x="-1637" y="-804.22" width="51" height="10" as="geometry" />
        </mxCell>
        <mxCell id="hhFu2yXnE7WBhEnphd9l-1" style="edgeStyle=orthogonalEdgeStyle;rounded=1;orthogonalLoop=1;jettySize=auto;html=1;entryX=1;entryY=0.181;entryDx=0;entryDy=0;entryPerimeter=0;curved=0;strokeColor=#007FFF;shadow=0;noJump=1;" parent="1" source="LXhwEYFynrwZ-pUap6Co-76" target="LXhwEYFynrwZ-pUap6Co-10" edge="1">
          <mxGeometry relative="1" as="geometry">
            <Array as="points">
              <mxPoint x="-990" y="-509" />
            </Array>
          </mxGeometry>
        </mxCell>
        <mxCell id="hhFu2yXnE7WBhEnphd9l-2" value="Workshift" style="edgeLabel;html=1;align=center;verticalAlign=middle;resizable=0;points=[];" parent="hhFu2yXnE7WBhEnphd9l-1" vertex="1" connectable="0">
          <mxGeometry x="0.6017" y="-2" relative="1" as="geometry">
            <mxPoint as="offset" />
          </mxGeometry>
        </mxCell>
        <mxCell id="hhFu2yXnE7WBhEnphd9l-3" value="Holiday Entitlement&lt;div&gt;Absence Balance&lt;/div&gt;" style="text;html=1;align=center;verticalAlign=middle;whiteSpace=wrap;rounded=0;" parent="1" vertex="1">
          <mxGeometry x="-1170" y="-670" width="140" height="30" as="geometry" />
        </mxCell>
        <mxCell id="K8xXDljndKFM3jqNil_v-1" value="out of scope" style="rounded=1;whiteSpace=wrap;html=1;fillColor=#d80073;fontColor=#ffffff;strokeColor=#A50040;" parent="1" vertex="1">
          <mxGeometry x="-1790" y="-714.22" width="50" height="24.22" as="geometry" />
        </mxCell>
        <mxCell id="DpNto-erMD7lXuYV3NgU-1" value="" style="dashed=0;outlineConnect=0;html=1;align=center;labelPosition=center;verticalLabelPosition=bottom;verticalAlign=top;shape=mxgraph.weblogos.gmail" parent="1" vertex="1">
          <mxGeometry x="-1635" y="-774.2199999999999" width="50" height="26.8" as="geometry" />
        </mxCell>
        <mxCell id="DpNto-erMD7lXuYV3NgU-2" value="" style="shape=image;verticalLabelPosition=bottom;labelBackgroundColor=default;verticalAlign=top;aspect=fixed;imageAspect=0;image=https://logodownload.org/wp-content/uploads/2021/06/google-meet-logo-1.png;" parent="1" vertex="1">
          <mxGeometry x="-1741" y="-782.98" width="90" height="44.33" as="geometry" />
        </mxCell>
        <mxCell id="DpNto-erMD7lXuYV3NgU-4" value="" style="shape=image;verticalLabelPosition=bottom;labelBackgroundColor=default;verticalAlign=top;aspect=fixed;imageAspect=0;image=https://www.greatcompgarden.co.uk/wp-content/uploads/2022/05/SEW_Logo_Horizontal_Colour_RGB.png;" parent="1" vertex="1">
          <mxGeometry x="-1151" y="-995.22" width="320" height="72.32" as="geometry" />
        </mxCell>
        <mxCell id="lF2a-6-bPxqarsUywT9y-3" value="" style="shape=image;verticalLabelPosition=bottom;labelBackgroundColor=default;verticalAlign=top;aspect=fixed;imageAspect=0;image=https://upload.wikimedia.org/wikipedia/commons/thumb/8/80/LinkedIn_Logo_2013.svg/2560px-LinkedIn_Logo_2013.svg.png;" vertex="1" parent="1">
          <mxGeometry x="-1930" y="-515" width="122.52" height="31.04" as="geometry" />
        </mxCell>
        <mxCell id="lF2a-6-bPxqarsUywT9y-5" value="" style="shape=image;verticalLabelPosition=bottom;labelBackgroundColor=default;verticalAlign=top;aspect=fixed;imageAspect=0;image=https://www.paygate.uk/wp-content/uploads/2021/07/PAYGATE-LOGO_RGB-e1625570967117.png;align=center;fontFamily=Helvetica;fontSize=12;fontColor=default;fillColor=#00BEF2;movable=1;resizable=1;rotatable=1;deletable=1;editable=1;locked=0;connectable=1;" vertex="1" parent="1">
          <mxGeometry x="-1310" y="-380" width="160.31" height="41" as="geometry" />
        </mxCell>
        <mxCell id="lF2a-6-bPxqarsUywT9y-6" style="edgeStyle=orthogonalEdgeStyle;rounded=0;orthogonalLoop=1;jettySize=auto;html=1;" edge="1" parent="1" source="lF2a-6-bPxqarsUywT9y-5">
          <mxGeometry relative="1" as="geometry">
            <mxPoint x="-1140" y="-360" as="sourcePoint" />
            <mxPoint x="-1080" y="-360" as="targetPoint" />
          </mxGeometry>
        </mxCell>
        <mxCell id="lF2a-6-bPxqarsUywT9y-7" value="" style="shape=image;verticalLabelPosition=bottom;labelBackgroundColor=default;verticalAlign=top;aspect=fixed;imageAspect=0;image=https://fcsa.org.uk/wp-content/uploads/2022/04/HMRC-Logo-1820x1024.png;imageBorder=#333333;movable=1;resizable=1;rotatable=1;deletable=1;editable=1;locked=0;connectable=1;" vertex="1" parent="1">
          <mxGeometry x="-1919.27" y="-360" width="88.89" height="50" as="geometry" />
        </mxCell>
      </root>
    </mxGraphModel>
  </diagram>
</mxfile>
